<?xml version="1.0" encoding="utf-8"?>
<!-- Generator: Adobe Illustrator 26.0.0, SVG Export Plug-In . SVG Version: 6.00 Build 0)  -->
<svg version="1.1" id="Layer_1" xmlns="http://www.w3.org/2000/svg" xmlns:xlink="http://www.w3.org/1999/xlink" x="0px" y="0px"
	 viewBox="0 0 1403.6 878.8" style="enable-background:new 0 0 1403.6 878.8;" xml:space="preserve">
<style type="text/css">
	.st0{fill:#DAB7B5;fill-opacity:0.11;stroke:#7F0000;}
	.st1{fill:#D21002;stroke:#000000;stroke-width:3;stroke-opacity:0;}
	.st2{fill:#FFFFFF;stroke:#000000;stroke-width:3;stroke-opacity:0;}
	.st3{fill:none;stroke:#000000;stroke-width:3;stroke-opacity:0.67;}
	.st4{fill:#333333;fill-opacity:0.8;}
	.st5{fill:none;stroke:#5E5E5E;stroke-width:3;}
	.st6{fill:#5E5E5E;stroke:#5E5E5E;stroke-width:5.000000e-02;}
	.st7{fill:#5E5E5E;}
	.st8{fill:#000B1D;stroke:#000000;stroke-width:0.64;stroke-opacity:0;}
	.st9{fill:#FA0F00;stroke:#000000;stroke-width:0.64;stroke-opacity:0;}
	.st10{fill:#E5E5E5;stroke:#000000;stroke-width:0.64;stroke-opacity:0;}
	.st11{fill:none;stroke:#5E5E5E;stroke-width:2;}
	.st12{fill:#5E5E5E;stroke:#5E5E5E;stroke-width:2;}
	.st13{enable-background:new    ;}
	.st14{fill:#333333;}
	.st15{fill:#000B1D;}
	.st16{fill:#FFFFFF;}
</style>
<g id="Layer_1_00000142165050358467498650000003134919030112412294_" xmlns:lucid="lucid">
	<path class="st0" d="M314.6,628.9c0-3.3,2.7-6,6-6h383.2c3.3,0,6,2.7,6,6v223.9c0,3.3-2.7,6-6,6H320.6c-3.3,0-6-2.7-6-6V628.9z"/>
	<path class="st1" d="M327.1,644.7c0-3.3,2.7-6,6-6h358.2c3.3,0,6,2.7,6,6v128.4c0,3.3-2.7,6-6,6H333.1c-3.3,0-6-2.7-6-6V644.7z"/>
	<path class="st2" d="M349.5,687.3c0-3.3,2.7-6,6-6h145.7c3.3,0,6,2.7,6,6v70.3c0,3.3-2.7,6-6,6H355.5c-3.3,0-6-2.7-6-6V687.3z"/>
	<path class="st2" d="M516.8,687.6c0-3.3,2.7-6,6-6h145.7c3.3,0,6,2.7,6,6v25.6c0,3.3-2.7,6-6,6H522.8c-3.3,0-6-2.7-6-6V687.6z"/>
	<path class="st2" d="M516.8,731.9c0-3.3,2.7-6,6-6h145.7c3.3,0,6,2.7,6,6v25.6c0,3.3-2.7,6-6,6H522.8c-3.3,0-6-2.7-6-6V731.9z"/>
	<path class="st1" d="M327.1,789.1c0-3.3,2.7-6,6-6h358.2c3.3,0,6,2.7,6,6v45.4c0,3.3-2.7,6-6,6H333.1c-3.3,0-6-2.7-6-6V789.1z"/>
	<path class="st1" d="M316,419.9c0-3.3,2.7-6,6-6h842.2c3.3,0,6,2.7,6,6v91.4c0,3.3-2.7,6-6,6H322c-3.3,0-6-2.7-6-6V419.9z"/>
	<path class="st2" d="M884.9,467.1c0-3.3,2.7-6,6-6l0,0h243.3c3.3,0,6,2.7,6,6l0,0v29.3c0,3.3-2.7,6-6,6H890.9c-3.3,0-6-2.7-6-6
		V467.1z"/>
	<path class="st2" d="M614.9,467.1c0-3.3,2.7-6,6-6l0,0h243.3c3.3,0,6,2.7,6,6l0,0v29.3c0,3.3-2.7,6-6,6H620.9c-3.3,0-6-2.7-6-6
		V467.1z"/>
	<path class="st3" d="M817.6,301.7H668.3"/>
	<path class="st4" d="M89.5,801.6c-11.1,0-20,3.8-20,8.1c0,4.5,8.9,8.1,20,8.1s20-3.6,20-8.1C109.5,805.4,100.6,801.6,89.5,801.6
		L89.5,801.6z M69.6,815.5v8.8c0,3.5,8.9,7.4,20,7.4s20-4.1,20-7.6l-0.1-8.7c-2.5,4.6-9.9,6.5-19.8,6.5S72.6,820,70,815.4
		L69.6,815.5z M69.6,829.4v20.4c0,3.5,8.9,7.4,20,7.4s20-4.1,20-7.5l-0.1-20.3c-2.6,4.6-9.9,6.5-19.8,6.5S72.5,834,70,829.4
		L69.6,829.4z M799,224.5c1,0,1.5,0.9,1.5,1.6c0,1-0.6,1.6-1.5,1.6h-3.1c-0.8,0-1.5-0.6-1.5-1.6c0-0.8,0.7-1.6,1.5-1.6H799z
		 M812.4,231c0.4,0,0.5,0.4,0.5,1v47.2c0,0.4-0.2,0.6-0.6,0.6h-29.5c-0.6,0-1-0.2-1-0.6v-47.1c0-0.6,0.4-1,1-1L812.4,231z
		 M797.4,282.2c2.3,0,4.1,1.8,4.1,4c0,2.4-1.7,4.3-4.1,4.3c-2.1,0-3.9-1.9-3.9-4.3C793.6,284,795.3,282.2,797.4,282.2L797.4,282.2z
		 M778.8,218c0,0-3.1,0-3.1,3.3v71.5c0,3.3,3.1,3.3,3.1,3.3h37.3c0,0,3.1,0,3.1-3.3v-71.5c0-3.3-3.1-3.3-3.1-3.3L778.8,218z
		 M725.5,231c0.4,0,0.6,0.4,0.6,1v30.9c0,0.4-0.2,1-0.8,1h-41.7c-0.5-0.4-1-0.6-1-1V232c0-0.6,0.4-1,1-1H725.5z M713.1,276.5
		c0.4,0,1,0.4,1,0.8l1.2,4.8c0,0.6-0.2,0.8-0.6,0.8h-20.2c-0.2,0-0.6-0.2-0.6-0.6l1.2-4.9c0-0.6,0.4-1,1-1L713.1,276.5z
		 M681.1,224.5c-2.3,0-4.6,2.5-4.6,4.8v35.8l-9.3,22.8v1.6c0,0,0,3.3,3.1,3.3h68.2c3.1,0,3.1-3.3,3.1-3.3v-1.6l-9.3-22.8v-35.7
		c0-2.4-2.2-4.8-4.6-4.8L681.1,224.5z"/>
	<path class="st4" d="M115.8,695.3H115c0-4.2-2-8-5.1-10.4c-3.2-2.4-7.4-3-11.1-1.6c-3.1-6.3-9.9-9.5-16.4-7.9s-11.2,7.7-11.2,14.8
		v0.2c-4.5-0.7-8.9,1.2-11.8,4.9c-2.7,3.8-3.2,8.9-1.2,13.1c1.9,4.2,5.9,7.1,10.4,7.3l0,0h47.1c5.3,0,9.7-4.6,9.7-10.2
		C125.4,700,121.1,695.3,115.8,695.3L115.8,695.3z"/>
	<path class="st2" d="M345,467.1c0-3.3,2.7-6,6-6l0,0h243.3c3.3,0,6,2.7,6,6l0,0v29.3c0,3.3-2.7,6-6,6H351c-3.3,0-6-2.7-6-6V467.1z"
		/>
	<path class="st1" d="M819.2,625.8c0-3.3,2.7-6,6-6h339.1c3.3,0,6,2.7,6,6v98.6c0,3.3-2.7,6-6,6H825.2c-3.3,0-6-2.7-6-6V625.8z"/>
	<path class="st5" d="M161.2,609.2v246.6 M161.2,609.2v-1.5 M161.2,855.8v1.5"/>
	<path class="st6" d="M220.8,738.5h-58.6v-2h58.5L220.8,738.5z M295.7,738.5h-41v-2h41V738.5z"/>
	<path class="st7" d="M310.9,737.5l-14.3,4.6v-9.3L310.9,737.5z"/>
	<path class="st6" d="M314.2,737.5l-18.5,6v-12L314.2,737.5z M297.7,740.8l10-3.3l-10-3.2V740.8z M162.3,738.5h-1v-2h1V738.5z"/>
	<path class="st8" d="M324.4,570H355c5.6,0,8.4,3,8.4,9.1v31.7c0,6-2.8,9.1-8.4,9.1h-30.6c-5.6,0-8.4-3-8.4-9.1v-31.7
		C316,573,318.8,570,324.4,570z"/>
	<path class="st9" d="M353,607.5h-5.6c-0.5,0-1-0.3-1.2-0.8l-6.1-15.4c0-0.1-0.1-0.2-0.1-0.2c-0.1-0.1-0.3,0-0.3,0.1l-3.9,9.8v0.1
		c0,0.2,0.1,0.3,0.3,0.3h4.2c0.2,0,0.5,0.2,0.6,0.5l1.9,4.4c0.1,0.4,0,0.9-0.4,1.1c-0.1,0-0.2,0-0.3,0h-15.2c-0.4,0-0.7-0.4-0.7-0.8
		c0-0.1,0-0.2,0.1-0.3l9.7-24.9c0.2-0.5,0.7-0.8,1.2-0.8h5.6c0.6,0,1,0.3,1.2,0.8l9.8,24.9c0.1,0.4,0,0.8-0.4,1
		C353.1,607.5,353.1,607.5,353,607.5L353,607.5z"/>
	<path class="st10" d="M820.9,597.1h30.7c5.6,0,8.4,3,8.4,9.1v31.7c0,6-2.8,9.1-8.4,9.1h-30.7c-5.6,0-8.4-3-8.4-9.1v-31.7
		C812.5,600.1,815.3,597.1,820.9,597.1L820.9,597.1z"/>
	<path class="st9" d="M849.4,634.6h-5.6c-0.5,0-1-0.3-1.2-0.8l-6.1-15.4c0-0.1-0.1-0.2-0.2-0.2c-0.1-0.1-0.3,0-0.3,0.2l-3.9,9.8v0.1
		c0,0.2,0.1,0.3,0.3,0.3h4.2c0.2,0.1,0.5,0.2,0.6,0.5l1.8,4.4c0.1,0.5,0,0.9-0.4,1.1c-0.2,0-0.2,0-0.3,0h-15.2
		c-0.4,0-0.7-0.4-0.7-0.8c0-0.1,0.1-0.2,0.1-0.3l9.7-24.9c0.2-0.5,0.7-0.8,1.2-0.8h5.6c0.6,0,1,0.3,1.2,0.8l9.8,24.9
		c0.1,0.4,0,0.8-0.3,1C849.6,634.6,849.5,634.6,849.4,634.6L849.4,634.6z"/>
	<path class="st8" d="M310.7,396.1h30.7c5.6,0,8.4,3,8.4,9.1v31.7c0,6-2.8,9.1-8.4,9.1h-30.7c-5.6,0-8.4-3-8.4-9.1v-31.7
		C302.3,399.1,305.1,396.1,310.7,396.1z"/>
	<path class="st9" d="M339.2,433.6h-5.6c-0.5,0-1-0.3-1.2-0.8l-6.1-15.4c0-0.1-0.1-0.2-0.1-0.2c-0.1,0-0.3,0-0.3,0.1l-3.9,9.8v0.1
		c0,0.2,0.1,0.4,0.3,0.4h4.2c0.2,0,0.5,0.2,0.6,0.5l1.9,4.4c0.1,0.4,0,0.9-0.4,1.1c-0.1,0-0.2,0-0.3,0h-15.2c-0.4,0-0.7-0.4-0.7-0.8
		c0-0.1,0-0.2,0.1-0.3l9.7-24.9c0.2-0.5,0.7-0.8,1.2-0.8h5.6c0.6,0,1,0.3,1.2,0.8l9.8,24.9c0.1,0.4,0,0.8-0.4,1
		C339.3,433.6,339.3,433.6,339.2,433.6L339.2,433.6z"/>
	<path class="st6" d="M605.8,606.1h-2V570h2V606.1z M605.7,547.7h-2v-29.4h2V547.7z"/>
	<path class="st7" d="M605.7,518.4h-2v-1h2V518.4z"/>
	<path class="st6" d="M605.8,518.4h-2v-1.1h2.1L605.8,518.4z M603.8,517.4v1h2v-1H603.8z"/>
	<path class="st7" d="M604.8,621.4l-4.6-14.3h9.3L604.8,621.4z"/>
	<path class="st6" d="M604.8,624.6l-6-18.5h12L604.8,624.6z M601.5,608.1l3.3,10l3.3-10H601.5z"/>
	<path class="st6" d="M680.5,621.4h-2v-13h2V621.4z M680.6,535.8v28.1h-2v-28.1H680.6z"/>
	<path class="st7" d="M684.2,534.8h-9.3l4.7-14.3L684.2,534.8z"/>
	<path class="st6" d="M685.6,535.8h-12l6-18.5L685.6,535.8z M676.3,533.8h6.5l-3.2-10L676.3,533.8z"/>
	<path class="st7" d="M680.5,621.4v1h-2v-1H680.5z"/>
	<path class="st6" d="M680.5,621.4v1.1h-2v-1.1H680.5z M678.5,622.4h2v-1h-2V622.4z"/>
	<path class="st11" d="M885.9,518.3v114.9c0,3.3,2.7,6,6,6h22.5c3.3,0,6-2.7,6-6v-97.4"/>
	<path class="st6" d="M886.9,518.3h-2v-1h2V518.3z"/>
	<path class="st12" d="M920.4,520.5l4.6,14.3h-9.3L920.4,520.5z"/>
	<path class="st11" d="M725.7,395.5v-91"/>
	<path class="st12" d="M725.7,410.7l-4.6-14.3h9.3L725.7,410.7z"/>
	<path class="st6" d="M726.7,304.5h-2v-1.3h2V304.5z"/>
	<path class="st11" d="M763.9,413v-91"/>
	<path class="st6" d="M764.9,414h-2v-1h2V414z"/>
	<path class="st12" d="M763.9,306.7l4.6,14.3h-9.3L763.9,306.7z"/>
	<path class="st8" d="M32.4,30h45.4c8.3,0,12.4,4.3,12.4,12.8v44.7c0,8.5-4.2,12.8-12.4,12.8H32.5C24.2,100.3,20,96,20,87.5V42.8
		C20,34.3,24.2,30,32.4,30L32.4,30z"/>
	<path class="st9" d="M74.7,82.9h-8.4c-0.8,0-1.4-0.4-1.8-1.1l-9-21.8c0-0.2-0.1-0.3-0.2-0.3c-0.2-0.1-0.4,0-0.5,0.2l-5.7,13.9v0.1
		c0,0.3,0.2,0.5,0.5,0.5h6.2c0.3,0,0.7,0.3,0.8,0.6l2.7,6.2c0.2,0.6,0,1.3-0.6,1.6c-0.1,0.1-0.3,0.1-0.5,0.1H35.7
		c-0.6,0-1-0.5-1-1.1c0-0.1,0.1-0.3,0.1-0.4l14.3-35.1c0.3-0.8,1-1.2,1.8-1.2h8.3c0.8,0,1.6,0.4,1.8,1.2l14.5,35.1
		c0.2,0.6,0,1.1-0.6,1.4C74.9,82.9,74.8,82.9,74.7,82.9L74.7,82.9z"/>
</g>
<g id="Layer_2_00000008138056069738836290000015304937795503163011_">
	<g class="st13">
		<path class="st14" d="M135.6,65.8h-10.5l0.1,17c0.1,3.5-2.3,3.6-8.8,3.6c-0.1-0.6-0.4-1.6-0.6-2.3c2.3,0,5.1,0,5.7,0
			c0.8-0.1,1.3-0.7,1.2-1.3l-0.1-15.1c-3.6,5.2-9.4,10.7-15.1,14.1c-0.4-0.6-1.1-1.4-1.7-1.9c5.7-3.1,11.7-8.6,15.3-14h-13.9v-2.4
			h15.4l-0.1-7.6l3.4,0.1c0,0.4-0.4,0.6-0.9,0.7l0.1,6.8h10.5V65.8z"/>
		<path class="st14" d="M141.5,58.7c3.6,1.2,7.8,3,10.4,4.8l-1.3,2.2c-2.5-1.8-6.7-3.6-10.2-4.9L141.5,58.7z M141.4,83
			c12.4-3.9,20.7-10.8,24.9-20.5c0.7,0.6,1.5,1,2.3,1.4c-4.4,9.6-12.9,17-24.8,21c0,0.3-0.2,0.7-0.5,0.8L141.4,83z"/>
		<path class="st14" d="M199.2,67.3c-0.1,0.1-0.2,0.3-0.5,0.3c-2.9,10.6-8.7,15.7-19.2,18.6c-0.3-0.6-1-1.5-1.5-2
			c9.5-2.4,15.4-7.3,17.6-15.4h-23.2v-2.4h24.2l0.4-0.2L199.2,67.3z M195.9,59.8h-20v-2.3h20V59.8z"/>
		<path class="st14" d="M232.1,58.1c-0.1,0.2-0.3,0.3-0.7,0.3c-0.1,0-0.2,0-0.4,0c-2.7,2.7-6.6,5.9-10,8.4c0.3,0.1,0.7,0.3,0.8,0.4
			c-0.1,0.2-0.4,0.4-0.8,0.5v18.8h-2.6v-18c-3.7,2.6-8.5,5.5-13.3,7.8c-0.4-0.6-1-1.4-1.5-1.9c9.6-4.4,20-11.9,25.7-18.1L232.1,58.1
			z"/>
		<path class="st14" d="M238.1,58.7c3.6,1.2,7.8,3,10.4,4.8l-1.3,2.2c-2.5-1.8-6.7-3.6-10.2-4.9L238.1,58.7z M238,83
			c12.4-3.9,20.7-10.8,24.9-20.5c0.7,0.6,1.5,1,2.3,1.4c-4.4,9.6-12.9,17-24.8,21c0,0.3-0.2,0.7-0.5,0.8L238,83z"/>
		<path class="st14" d="M268.2,86.4l31.5-31.5l1,1l-31.5,31.5L268.2,86.4z"/>
		<path class="st14" d="M333,65.8h-10.5l0.1,17c0.1,3.5-2.3,3.6-8.8,3.6c-0.1-0.6-0.4-1.6-0.6-2.3c2.3,0,5.1,0,5.7,0
			c0.8-0.1,1.3-0.7,1.2-1.3l-0.1-15.1c-3.6,5.2-9.4,10.7-15.1,14.1c-0.4-0.6-1.1-1.4-1.7-1.9c5.7-3.1,11.7-8.6,15.3-14h-13.9v-2.4
			H320l-0.1-7.6l3.4,0.1c0,0.4-0.4,0.6-0.9,0.7l0.1,6.8H333V65.8z"/>
		<path class="st14" d="M364.3,60.4c-0.1,0.2-0.2,0.3-0.5,0.4c-2.8,13.3-9.6,21.1-21.1,25.2c-0.4-0.6-1.2-1.5-1.6-2
			c10.9-3.5,17.5-11.3,19.6-21.9h-22.9v-2.3h23.8l0.5-0.3L364.3,60.4z"/>
		<path class="st14" d="M396.3,67.3c-0.1,0.1-0.2,0.3-0.5,0.3c-2.9,10.6-8.7,15.7-19.2,18.6c-0.3-0.6-1-1.5-1.5-2
			c9.5-2.4,15.4-7.3,17.6-15.4h-23.2v-2.4h24.2l0.4-0.2L396.3,67.3z M393,59.8h-20v-2.3h20V59.8z"/>
		<path class="st14" d="M429.2,58.1c-0.1,0.2-0.4,0.3-0.7,0.3c-0.1,0-0.2,0-0.4,0c-2.7,2.7-6.6,5.9-10,8.4c0.3,0.1,0.7,0.3,0.8,0.4
			c-0.1,0.2-0.4,0.4-0.8,0.5v18.8h-2.6v-18c-3.7,2.6-8.5,5.5-13.3,7.8c-0.4-0.6-1-1.4-1.5-1.9c9.6-4.4,20-11.9,25.7-18.1L429.2,58.1
			z"/>
		<path class="st14" d="M435.1,58.7c3.6,1.2,7.8,3,10.4,4.8l-1.3,2.2c-2.5-1.8-6.7-3.6-10.2-4.9L435.1,58.7z M435,83
			c12.4-3.9,20.7-10.8,24.9-20.5c0.7,0.6,1.5,1,2.3,1.4c-4.4,9.6-12.9,17-24.8,21c0,0.3-0.2,0.7-0.5,0.8L435,83z"/>
		<path class="st14" d="M483.6,61.3c-0.1,0.3-0.4,0.6-0.9,0.6c-1.3,10.9-4.9,20.4-10.7,20.4c-2.9,0-5.6-2.9-5.6-8.5
			c0-8.4,6.5-15.4,15.8-15.4c10.1,0,14.5,6.4,14.5,13.2c0,8.3-4.8,12.4-13.3,14.3c-0.3-0.6-0.9-1.5-1.5-2.1
			c8.1-1.5,12.2-5.5,12.2-12.1c0-5.8-3.7-11-11.9-11c-0.3,0-0.7,0-1,0.1L483.6,61.3z M480.2,60.8c-7.1,0.9-11.4,6.7-11.4,12.8
			c0,3.7,1.6,6.1,3.3,6.1C476.3,79.8,479.3,70.4,480.2,60.8z"/>
		<path class="st14" d="M512.2,61.4c-0.1,0.3-0.4,0.5-0.9,0.5c-1.4,8.4-4.3,17.3-8.4,22.4c-0.6-0.5-1.6-0.9-2.3-1.3
			c3.9-4.8,7-13.7,8.1-22.4L512.2,61.4z M529.8,84.1c-1.6-6.1-5.7-16.1-9.3-22.5l2.3-1.1c3.7,6.3,7.8,16.1,9.6,22.6L529.8,84.1z
			 M529.3,54.4c2.2,0,3.9,1.8,3.9,4c0,2.1-1.8,3.9-3.9,3.9c-2.2,0-3.9-1.8-3.9-3.9C525.4,56,527.2,54.4,529.3,54.4z M532.1,58.3
			c0-1.6-1.3-2.8-2.8-2.8c-1.5,0-2.8,1.2-2.8,2.8c0,1.5,1.2,2.8,2.8,2.8C530.9,61.1,532.1,59.7,532.1,58.3z"/>
		<path class="st14" d="M536.4,69.3h29.2v2.5h-27.9c-0.2,0.3-0.7,0.6-1.1,0.7L536.4,69.3z"/>
		<path class="st14" d="M573.1,59.5c2.5,2.9,4.9,7.1,6,9.9l-2.4,1.2c-1-2.8-3.5-7.1-5.8-10L573.1,59.5z M597.6,59.9
			c-0.1,0.3-0.4,0.5-0.9,0.5c-3.5,13.1-10.3,20.7-20.1,25.2c-0.4-0.5-1.2-1.4-1.8-1.9c9.6-4.2,16.1-11.5,19.4-24.9L597.6,59.9z"/>
		<path class="st14" d="M631.2,67.7h-12.7c-0.7,9-2.9,14.5-10.6,18.8c-0.5-0.6-1.3-1.2-2-1.7c7.2-4,9.4-8.8,10-17.1h-14v-2.4h14.1
			c0.1-2.7,0.1-5.9,0.1-9.4l3.4,0.2c0,0.3-0.3,0.6-0.8,0.6c0,3.2,0,6-0.2,8.6h12.5V67.7z"/>
		<path class="st14" d="M661.9,67.3c-0.1,0.1-0.2,0.3-0.5,0.3c-2.9,10.6-8.7,15.7-19.2,18.6c-0.3-0.6-1-1.5-1.5-2
			c9.5-2.4,15.4-7.3,17.6-15.4h-23.2v-2.4h24.2l0.4-0.2L661.9,67.3z M658.6,59.8h-20v-2.3h20V59.8z"/>
		<path class="st14" d="M694.9,58.1c-0.1,0.2-0.4,0.3-0.7,0.3c-0.1,0-0.2,0-0.4,0c-2.7,2.7-6.6,5.9-10,8.4c0.3,0.1,0.7,0.3,0.8,0.4
			c-0.1,0.2-0.4,0.4-0.8,0.5v18.8h-2.6v-18c-3.7,2.6-8.5,5.5-13.3,7.8c-0.3-0.6-1-1.4-1.5-1.9c9.6-4.4,20-11.9,25.7-18.1L694.9,58.1
			z"/>
		<path class="st14" d="M728.7,63.9c-0.1,0.2-0.3,0.3-0.6,0.4c-1.6,3.8-4.3,8.6-7.3,11.4c-0.5-0.4-1.4-0.9-2.1-1.3
			c2.7-2.4,4.8-5.9,6-8.7l-13.4,3.5v9c0,3.5,2.1,4.6,4.9,4.6h5.7c1.4,0,3.9-0.2,5.2-0.3c0,0.7,0,1.7,0.1,2.5
			c-1.4,0.1-3.8,0.2-5.2,0.2h-5.8c-4.4,0-7.4-2-7.4-6.9v-8.4l-8.8,2.3l-0.6-2.3l9.4-2.3V56.8l3.4,0.2c0,0.4-0.4,0.6-0.9,0.7v9.3
			l14.8-3.8l0.4-0.3L728.7,63.9z M721.2,55.6c1.5,1.4,3.4,3.6,4.4,5.1l-1.3,1c-1-1.5-2.8-3.7-4.4-5.1L721.2,55.6z M726.3,54
			c1.6,1.4,3.4,3.5,4.4,5.1l-1.3,1c-1-1.5-2.8-3.7-4.4-5.1L726.3,54z"/>
		<path class="st14" d="M734.1,69.3h29.2v2.5h-27.9c-0.2,0.3-0.7,0.6-1.1,0.7L734.1,69.3z"/>
		<path class="st14" d="M768.8,65.9c3.2,0.7,7.1,2,9.4,3.2l-1.1,2.2c-2.3-1.1-6.3-2.5-9.4-3.2L768.8,65.9z M770.9,83.1
			c11.4-3.8,19.1-9.9,23.8-20.4c0.5,0.5,1.6,1.2,2.1,1.5c-4.7,10.4-12.8,16.9-23.6,20.7c0.1,0.3-0.1,0.7-0.4,0.9L770.9,83.1z
			 M772.6,57.3c3.1,0.8,7,2.2,9.4,3.4l-1.2,2.1c-2.5-1.3-6.1-2.7-9.3-3.5L772.6,57.3z"/>
		<path class="st14" d="M819.3,65v21.3h-2.1v-1.5h-15.7v-2h15.7v-7.1h-14.3v-2h14.3V67h-14.8V65H819.3z"/>
		<path class="st14" d="M828.6,58.7c3.6,1.2,7.8,3,10.4,4.8l-1.3,2.2c-2.5-1.8-6.7-3.6-10.2-4.9L828.6,58.7z M828.4,83
			c12.4-3.9,20.7-10.8,24.9-20.5c0.7,0.6,1.5,1,2.3,1.4c-4.4,9.6-12.9,17-24.8,21c0,0.3-0.2,0.7-0.5,0.8L828.4,83z"/>
		<path class="st14" d="M868.3,76.9v-3.1h9.5v3.1H868.3z"/>
		<path class="st14" d="M891.3,84.5V59.4h11.1c2.2,0,3.9,0.2,5.1,0.7c1.2,0.5,2.1,1.2,2.8,2.4c0.7,1.1,1,2.4,1,3.8
			c0,1.8-0.6,3.3-1.7,4.5c-1.2,1.2-2.9,2-5.3,2.3c0.9,0.4,1.5,0.8,2,1.2c1,0.9,1.9,2,2.8,3.3l4.4,6.8h-4.2l-3.3-5.2
			c-1-1.5-1.8-2.7-2.4-3.5c-0.6-0.8-1.2-1.4-1.7-1.7c-0.5-0.3-1-0.5-1.5-0.7c-0.4-0.1-1-0.1-1.8-0.1h-3.8v11.1H891.3z M894.6,70.5
			h7.1c1.5,0,2.7-0.2,3.6-0.5c0.9-0.3,1.5-0.8,1.9-1.5c0.4-0.7,0.7-1.4,0.7-2.2c0-1.2-0.4-2.2-1.3-2.9c-0.9-0.8-2.2-1.1-4.1-1.1
			h-7.9V70.5z"/>
		<path class="st14" d="M928.5,78.6l3.2,0.4c-0.5,1.9-1.4,3.3-2.8,4.3c-1.4,1-3.1,1.5-5.2,1.5c-2.7,0-4.8-0.8-6.3-2.5
			c-1.6-1.6-2.3-3.9-2.3-6.9c0-3.1,0.8-5.4,2.4-7.1c1.6-1.7,3.6-2.5,6.1-2.5c2.4,0,4.4,0.8,5.9,2.5c1.5,1.7,2.3,4,2.3,7
			c0,0.2,0,0.5,0,0.8h-13.5c0.1,2,0.7,3.5,1.7,4.6c1,1.1,2.3,1.6,3.8,1.6c1.1,0,2.1-0.3,2.9-0.9C927.4,80.9,928.1,79.9,928.5,78.6z
			 M918.4,73.6h10.1c-0.1-1.5-0.5-2.7-1.2-3.4c-1-1.2-2.2-1.8-3.8-1.8c-1.4,0-2.6,0.5-3.6,1.4C919.1,70.8,918.5,72.1,918.4,73.6z"/>
		<path class="st14" d="M947.4,82.2c-1.1,1-2.2,1.7-3.3,2.1c-1.1,0.4-2.2,0.6-3.4,0.6c-2,0-3.5-0.5-4.6-1.5c-1.1-1-1.6-2.2-1.6-3.7
			c0-0.9,0.2-1.7,0.6-2.4c0.4-0.7,0.9-1.3,1.6-1.8c0.7-0.4,1.4-0.8,2.2-1c0.6-0.2,1.5-0.3,2.7-0.5c2.5-0.3,4.3-0.6,5.5-1.1
			c0-0.4,0-0.7,0-0.8c0-1.3-0.3-2.1-0.9-2.6c-0.8-0.7-2-1-3.5-1c-1.4,0-2.5,0.3-3.2,0.8c-0.7,0.5-1.2,1.4-1.5,2.7l-3-0.4
			c0.3-1.3,0.7-2.3,1.3-3.1c0.6-0.8,1.5-1.4,2.7-1.8c1.2-0.4,2.6-0.6,4.1-0.6c1.5,0,2.8,0.2,3.8,0.5c1,0.4,1.7,0.8,2.1,1.4
			c0.5,0.6,0.8,1.2,1,2.1c0.1,0.5,0.2,1.5,0.2,2.8v4.1c0,2.9,0.1,4.7,0.2,5.4c0.1,0.8,0.4,1.5,0.8,2.2H948
			C947.7,83.8,947.5,83.1,947.4,82.2z M947.2,75.4c-1.1,0.5-2.8,0.8-5,1.2c-1.3,0.2-2.2,0.4-2.7,0.6c-0.5,0.2-0.9,0.6-1.2,1
			c-0.3,0.4-0.4,0.9-0.4,1.5c0,0.8,0.3,1.5,0.9,2.1c0.6,0.5,1.5,0.8,2.7,0.8c1.2,0,2.2-0.3,3.2-0.8c0.9-0.5,1.6-1.2,2-2.1
			c0.3-0.7,0.5-1.7,0.5-3.1V75.4z"/>
		<path class="st14" d="M955,84.5V59.4h3.1v25.1H955z"/>
		<path class="st14" d="M961.6,76.9v-3.1h9.5v3.1H961.6z"/>
		<path class="st14" d="M981.2,81.7l0.4,2.7c-0.9,0.2-1.6,0.3-2.3,0.3c-1.1,0-2-0.2-2.6-0.5c-0.6-0.4-1-0.8-1.3-1.4
			c-0.3-0.6-0.4-1.8-0.4-3.6V68.7h-2.3v-2.4h2.3v-4.5l3.1-1.8v6.3h3.1v2.4h-3.1v10.6c0,0.9,0.1,1.4,0.2,1.7c0.1,0.3,0.3,0.5,0.5,0.6
			c0.2,0.1,0.6,0.2,1.1,0.2C980.2,81.8,980.6,81.8,981.2,81.7z"/>
		<path class="st14" d="M984.2,62.9v-3.5h3.1v3.5H984.2z M984.2,84.5V66.3h3.1v18.1H984.2z"/>
		<path class="st14" d="M992,84.5V66.3h2.8v2.5c0.6-0.9,1.3-1.6,2.3-2.1c0.9-0.5,2-0.8,3.2-0.8c1.3,0,2.4,0.3,3.3,0.8
			c0.9,0.6,1.5,1.3,1.8,2.3c1.4-2.1,3.3-3.2,5.6-3.2c1.8,0,3.2,0.5,4.2,1.5c1,1,1.5,2.5,1.5,4.6v12.5h-3.1V73c0-1.2-0.1-2.1-0.3-2.7
			c-0.2-0.5-0.6-1-1.1-1.3c-0.5-0.3-1.1-0.5-1.8-0.5c-1.3,0-2.3,0.4-3.2,1.3c-0.8,0.8-1.3,2.2-1.3,4.1v10.5h-3.1V72.7
			c0-1.4-0.3-2.4-0.8-3.1c-0.5-0.7-1.3-1-2.5-1c-0.9,0-1.7,0.2-2.4,0.7c-0.7,0.5-1.3,1.1-1.6,2c-0.3,0.9-0.5,2.1-0.5,3.8v9.4H992z"
			/>
		<path class="st14" d="M1033.6,78.6l3.2,0.4c-0.5,1.9-1.4,3.3-2.8,4.3c-1.4,1-3.1,1.5-5.2,1.5c-2.7,0-4.8-0.8-6.3-2.5
			c-1.6-1.6-2.3-3.9-2.3-6.9c0-3.1,0.8-5.4,2.4-7.1c1.6-1.7,3.6-2.5,6.1-2.5c2.4,0,4.4,0.8,5.9,2.5c1.5,1.7,2.3,4,2.3,7
			c0,0.2,0,0.5,0,0.8h-13.5c0.1,2,0.7,3.5,1.7,4.6c1,1.1,2.3,1.6,3.8,1.6c1.1,0,2.1-0.3,2.9-0.9
			C1032.5,80.9,1033.1,79.9,1033.6,78.6z M1023.5,73.6h10.1c-0.1-1.5-0.5-2.7-1.2-3.4c-1-1.2-2.2-1.8-3.8-1.8
			c-1.4,0-2.6,0.5-3.6,1.4C1024.1,70.8,1023.6,72.1,1023.5,73.6z"/>
		<path class="st14" d="M1068.6,75.7l3.3,0.8c-0.7,2.7-1.9,4.8-3.8,6.2c-1.8,1.4-4,2.1-6.6,2.1c-2.7,0-4.9-0.5-6.6-1.6
			c-1.7-1.1-3-2.7-3.9-4.8c-0.9-2.1-1.3-4.3-1.3-6.7c0-2.6,0.5-4.9,1.5-6.8s2.4-3.4,4.3-4.4c1.8-1,3.9-1.5,6.1-1.5
			c2.5,0,4.6,0.6,6.3,1.9c1.7,1.3,2.9,3.1,3.6,5.4l-3.3,0.8c-0.6-1.8-1.4-3.2-2.5-4c-1.1-0.8-2.5-1.2-4.2-1.2
			c-1.9,0-3.5,0.5-4.8,1.4s-2.2,2.2-2.7,3.7c-0.5,1.6-0.8,3.2-0.8,4.8c0,2.1,0.3,4,0.9,5.6c0.6,1.6,1.6,2.8,2.9,3.6
			c1.3,0.8,2.7,1.2,4.3,1.2c1.9,0,3.4-0.5,4.7-1.6C1067.3,79.4,1068.1,77.8,1068.6,75.7z"/>
		<path class="st14" d="M1076,84.5V59.4h8.6c1.9,0,3.4,0.1,4.5,0.4c1.4,0.3,2.7,0.9,3.7,1.8c1.3,1.1,2.3,2.5,3,4.3
			c0.7,1.7,1,3.7,1,6c0,1.9-0.2,3.6-0.7,5.1c-0.4,1.5-1,2.7-1.7,3.6c-0.7,1-1.5,1.7-2.3,2.3c-0.8,0.6-1.8,1-3,1.3
			c-1.2,0.3-2.5,0.4-4,0.4H1076z M1079.3,81.5h5.3c1.7,0,2.9-0.2,3.9-0.5c0.9-0.3,1.7-0.7,2.2-1.3c0.8-0.8,1.4-1.8,1.8-3.2
			s0.7-2.9,0.7-4.8c0-2.6-0.4-4.6-1.3-6c-0.9-1.4-1.9-2.3-3.1-2.8c-0.9-0.3-2.3-0.5-4.3-0.5h-5.3V81.5z"/>
		<path class="st14" d="M1101.3,84.5V59.4h9.5c1.7,0,2.9,0.1,3.8,0.2c1.2,0.2,2.3,0.6,3.1,1.2c0.8,0.6,1.5,1.4,2,2.4
			c0.5,1,0.8,2.2,0.8,3.4c0,2.1-0.7,3.9-2,5.4c-1.4,1.5-3.8,2.2-7.3,2.2h-6.4v10.2H1101.3z M1104.6,71.3h6.5c2.1,0,3.7-0.4,4.6-1.2
			c0.9-0.8,1.4-1.9,1.4-3.4c0-1-0.3-1.9-0.8-2.7c-0.5-0.7-1.2-1.2-2.1-1.5c-0.6-0.1-1.6-0.2-3.1-0.2h-6.4V71.3z"/>
		<path class="st14" d="M1156.8,67.3c-0.1,0-0.2,0-0.3,0c-0.2,0-0.5-0.1-0.7-0.2c-10.4,3-19.8,7.6-19.8,12.3c0,3.4,3.7,4.5,9.4,4.5
			c5.6,0,9.9-0.4,12.4-0.8l0.2,2.6c-3.2,0.4-8.4,0.6-12.5,0.6c-6.9,0-12-1.6-12-6.8c0-3.7,3.7-7,9.2-9.9c-1.2-2.1-1.6-6.2-1.6-14.1
			l3.8,0.3c0,0.5-0.4,0.7-1.1,0.8c0,6.1,0.2,9.9,1.2,11.8c3.3-1.5,7.1-2.9,10.9-4.2L1156.8,67.3z"/>
		<path class="st14" d="M1178.6,84.5V62.4h-8.3v-3h19.9v3h-8.3v22.1H1178.6z"/>
		<path class="st14" d="M1201.1,82.2c-1.1,1-2.2,1.7-3.3,2.1c-1.1,0.4-2.2,0.6-3.4,0.6c-2,0-3.5-0.5-4.6-1.5c-1.1-1-1.6-2.2-1.6-3.7
			c0-0.9,0.2-1.7,0.6-2.4c0.4-0.7,0.9-1.3,1.6-1.8c0.7-0.4,1.4-0.8,2.2-1c0.6-0.2,1.5-0.3,2.7-0.5c2.5-0.3,4.3-0.6,5.5-1.1
			c0-0.4,0-0.7,0-0.8c0-1.3-0.3-2.1-0.9-2.6c-0.8-0.7-2-1-3.5-1c-1.4,0-2.5,0.3-3.2,0.8c-0.7,0.5-1.2,1.4-1.5,2.7l-3-0.4
			c0.3-1.3,0.7-2.3,1.3-3.1c0.6-0.8,1.5-1.4,2.7-1.8c1.2-0.4,2.6-0.6,4.1-0.6c1.5,0,2.8,0.2,3.8,0.5c1,0.4,1.7,0.8,2.1,1.4
			c0.5,0.6,0.8,1.2,1,2.1c0.1,0.5,0.2,1.5,0.2,2.8v4.1c0,2.9,0.1,4.7,0.2,5.4c0.1,0.8,0.4,1.5,0.8,2.2h-3.2
			C1201.4,83.8,1201.2,83.1,1201.1,82.2z M1200.9,75.4c-1.1,0.5-2.8,0.8-5,1.2c-1.3,0.2-2.2,0.4-2.7,0.6c-0.5,0.2-0.9,0.6-1.2,1
			c-0.3,0.4-0.4,0.9-0.4,1.5c0,0.8,0.3,1.5,0.9,2.1c0.6,0.5,1.5,0.8,2.7,0.8c1.2,0,2.2-0.3,3.2-0.8c0.9-0.5,1.6-1.2,2-2.1
			c0.3-0.7,0.5-1.7,0.5-3.1V75.4z"/>
		<path class="st14" d="M1208.7,84.5V66.3h2.8v2.8c0.7-1.3,1.4-2.1,2-2.5c0.6-0.4,1.3-0.6,2-0.6c1,0,2.1,0.3,3.2,1l-1.1,2.9
			c-0.8-0.4-1.5-0.7-2.3-0.7c-0.7,0-1.3,0.2-1.8,0.6c-0.5,0.4-0.9,1-1.1,1.7c-0.3,1.1-0.5,2.3-0.5,3.6v9.5H1208.7z"/>
		<path class="st14" d="M1219.9,86l3,0.4c0.1,0.9,0.5,1.6,1,2c0.8,0.6,1.8,0.9,3.1,0.9c1.4,0,2.5-0.3,3.3-0.9
			c0.8-0.6,1.3-1.4,1.6-2.4c0.2-0.6,0.2-1.9,0.2-3.9c-1.3,1.6-3,2.4-5,2.4c-2.5,0-4.4-0.9-5.8-2.7c-1.4-1.8-2.1-4-2.1-6.5
			c0-1.7,0.3-3.3,0.9-4.8c0.6-1.5,1.5-2.6,2.7-3.4c1.2-0.8,2.6-1.2,4.2-1.2c2.1,0,3.9,0.9,5.3,2.6v-2.2h2.8V82c0,2.8-0.3,4.8-0.9,6
			c-0.6,1.2-1.5,2.1-2.7,2.8c-1.2,0.7-2.8,1-4.6,1c-2.2,0-3.9-0.5-5.2-1.5C1220.5,89.4,1219.8,87.9,1219.9,86z M1222.4,75.1
			c0,2.4,0.5,4.1,1.4,5.2c0.9,1.1,2.1,1.6,3.6,1.6c1.4,0,2.6-0.5,3.6-1.6c1-1.1,1.4-2.8,1.4-5.1c0-2.2-0.5-3.9-1.5-5
			s-2.2-1.7-3.6-1.7c-1.4,0-2.5,0.6-3.5,1.7C1222.9,71.2,1222.4,72.9,1222.4,75.1z"/>
		<path class="st14" d="M1252.3,78.6l3.2,0.4c-0.5,1.9-1.4,3.3-2.8,4.3c-1.4,1-3.1,1.5-5.2,1.5c-2.7,0-4.8-0.8-6.3-2.5
			c-1.6-1.6-2.3-3.9-2.3-6.9c0-3.1,0.8-5.4,2.4-7.1c1.6-1.7,3.6-2.5,6.1-2.5c2.4,0,4.4,0.8,5.9,2.5c1.5,1.7,2.3,4,2.3,7
			c0,0.2,0,0.5,0,0.8H1242c0.1,2,0.7,3.5,1.7,4.6c1,1.1,2.3,1.6,3.8,1.6c1.1,0,2.1-0.3,2.9-0.9C1251.2,80.9,1251.8,79.9,1252.3,78.6
			z M1242.2,73.6h10.1c-0.1-1.5-0.5-2.7-1.2-3.4c-1-1.2-2.2-1.8-3.8-1.8c-1.4,0-2.6,0.5-3.6,1.4
			C1242.8,70.8,1242.3,72.1,1242.2,73.6z"/>
		<path class="st14" d="M1266.1,81.7l0.4,2.7c-0.9,0.2-1.6,0.3-2.3,0.3c-1.1,0-2-0.2-2.6-0.5c-0.6-0.4-1-0.8-1.3-1.4
			c-0.3-0.6-0.4-1.8-0.4-3.6V68.7h-2.3v-2.4h2.3v-4.5l3.1-1.8v6.3h3.1v2.4h-3.1v10.6c0,0.9,0.1,1.4,0.2,1.7c0.1,0.3,0.3,0.5,0.5,0.6
			c0.2,0.1,0.6,0.2,1.1,0.2C1265.1,81.8,1265.5,81.8,1266.1,81.7z"/>
	</g>
	<g class="st13">
		<path d="M699.8,182.5l1.9-0.2c0.1,0.8,0.3,1.4,0.6,1.9c0.3,0.5,0.8,0.9,1.6,1.2c0.7,0.3,1.5,0.5,2.4,0.5c0.8,0,1.5-0.1,2.1-0.3
			c0.6-0.2,1-0.5,1.3-1c0.3-0.4,0.4-0.8,0.4-1.3c0-0.5-0.1-0.9-0.4-1.3s-0.7-0.7-1.4-0.9c-0.4-0.2-1.3-0.4-2.7-0.8
			c-1.4-0.3-2.4-0.7-3-1c-0.7-0.4-1.3-0.9-1.6-1.4s-0.5-1.2-0.5-1.9c0-0.8,0.2-1.5,0.7-2.2c0.4-0.7,1.1-1.2,1.9-1.5
			c0.8-0.4,1.8-0.5,2.8-0.5c1.1,0,2.2,0.2,3,0.6c0.9,0.4,1.5,0.9,2,1.6c0.5,0.7,0.7,1.5,0.8,2.4l-2,0.1c-0.1-1-0.5-1.7-1.1-2.2
			s-1.5-0.7-2.7-0.7c-1.2,0-2.1,0.2-2.7,0.7c-0.6,0.5-0.8,1-0.8,1.6c0,0.6,0.2,1,0.6,1.4c0.4,0.4,1.4,0.7,3.1,1.1
			c1.7,0.4,2.8,0.7,3.4,1c0.9,0.4,1.6,0.9,2,1.6s0.6,1.4,0.6,2.2c0,0.8-0.2,1.6-0.7,2.3c-0.5,0.7-1.1,1.3-2,1.7
			c-0.9,0.4-1.9,0.6-3,0.6c-1.4,0-2.6-0.2-3.5-0.6c-0.9-0.4-1.7-1-2.2-1.8S699.8,183.6,699.8,182.5z"/>
		<path d="M714.8,187.5v-15.4h5.3c1.2,0,2.1,0.1,2.7,0.2c0.9,0.2,1.6,0.6,2.3,1.1c0.8,0.7,1.4,1.6,1.8,2.6c0.4,1.1,0.6,2.3,0.6,3.7
			c0,1.2-0.1,2.2-0.4,3.1c-0.3,0.9-0.6,1.7-1.1,2.2s-0.9,1.1-1.4,1.4c-0.5,0.3-1.1,0.6-1.8,0.8c-0.7,0.2-1.5,0.3-2.5,0.3H714.8z
			 M716.9,185.7h3.3c1,0,1.8-0.1,2.4-0.3c0.6-0.2,1-0.5,1.4-0.8c0.5-0.5,0.9-1.1,1.1-2c0.3-0.8,0.4-1.8,0.4-3c0-1.6-0.3-2.9-0.8-3.7
			s-1.2-1.4-1.9-1.7c-0.5-0.2-1.4-0.3-2.6-0.3h-3.2V185.7z"/>
		<path d="M730.3,187.5v-15.4h2v7.7l7.7-7.7h2.8l-6.5,6.3l6.8,9.2h-2.7l-5.5-7.8l-2.5,2.5v5.3H730.3z"/>
		<path d="M743.1,187.8l4.5-16h1.5l-4.5,16H743.1z"/>
		<path d="M749.1,187.5l5.9-15.4h2.2l6.3,15.4h-2.3l-1.8-4.7h-6.5l-1.7,4.7H749.1z M753.5,181.2h5.2l-1.6-4.3
			c-0.5-1.3-0.9-2.4-1.1-3.2c-0.2,1-0.5,2-0.8,2.9L753.5,181.2z"/>
		<path d="M765.1,187.5v-15.4h5.8c1,0,1.8,0,2.3,0.1c0.8,0.1,1.4,0.4,1.9,0.7s0.9,0.9,1.2,1.5s0.5,1.3,0.5,2.1
			c0,1.3-0.4,2.4-1.3,3.3c-0.8,0.9-2.3,1.4-4.5,1.4h-4v6.3H765.1z M767.2,179.4h4c1.3,0,2.3-0.2,2.8-0.7s0.8-1.2,0.8-2.1
			c0-0.6-0.2-1.2-0.5-1.7c-0.3-0.5-0.8-0.8-1.3-0.9c-0.3-0.1-1-0.1-1.9-0.1h-3.9V179.4z"/>
		<path d="M779.9,187.5v-15.4h2v15.4H779.9z"/>
	</g>
	<g class="st13">
		<path class="st14" d="M615.8,334.3h-5.4l0.3,0.1c0,0.1-0.1,0.2-0.3,0.2c-0.4,2.9-1.8,5.9-5,7.5c-0.2-0.2-0.6-0.6-0.9-0.8
			c3.2-1.6,4.3-4.1,4.7-7H603v-1.1h12.9V334.3z M613.4,329.9h-9v-1.1h9V329.9z M613.6,327.5c0.7,0.7,1.4,1.8,1.8,2.6l-0.7,0.4
			c-0.3-0.8-1.1-1.9-1.8-2.6L613.6,327.5z M615.6,326.9c0.7,0.7,1.5,1.8,1.8,2.6l-0.7,0.4c-0.3-0.7-1.2-1.9-1.8-2.5L615.6,326.9z"/>
		<path class="st14" d="M618.6,334.2h13.6v1.2h-13c-0.1,0.2-0.3,0.3-0.5,0.3L618.6,334.2z"/>
		<path class="st14" d="M646.2,330.7c0,0.1-0.1,0.1-0.2,0.2c-0.6,2-1.4,3.9-2.4,5.4c0.7,0.4,1.5,0.9,2.1,1.4l-0.7,1.1
			c-0.6-0.5-1.4-1-2.1-1.4c-1.5,2.1-3.4,3.8-5.9,5c-0.2-0.3-0.6-0.7-0.9-0.8c2.4-1.1,4.3-2.8,5.8-4.7c-1.2-0.7-2.4-1.2-3.6-1.7
			l0.6-0.9c1.2,0.4,2.4,1,3.7,1.6c0.8-1.3,1.5-2.8,2-4.3H639c-1,1.7-2.3,3.3-3.8,4.5c-0.2-0.2-0.7-0.6-0.9-0.7
			c2.1-1.6,4.2-4.6,5.1-7.3l1.5,0.4c-0.1,0.2-0.2,0.2-0.4,0.2c-0.2,0.5-0.6,1.3-0.9,1.9h5.4l0.2-0.1L646.2,330.7z"/>
		<path class="st14" d="M660.1,341.2c-0.4-0.4-0.8-0.7-1.3-1.3c-1.3,1.1-2.5,1.5-3.9,1.5c-2.2,0-3.8-1.5-3.8-3.5
			c0-1.8,1.2-2.9,2.6-3.6v0c-0.7-0.9-1.1-1.9-1.1-2.6c0-1.5,1.1-3,3.1-3c1.6,0,2.7,1.1,2.7,2.6c0,1.3-0.7,2.3-2.9,3.4v0
			c1.3,1.5,2.7,3,3.5,3.7c0.5-0.7,0.9-1.7,1.3-3.7h1.2c-0.4,2.2-0.9,3.7-1.8,4.5c0.7,0.7,1.4,1.4,2.1,2.1H660.1z M658.1,339.2
			c-0.5-0.5-2.2-2.2-3.8-4.1c-0.7,0.4-1.9,1.2-1.9,2.7c0,1.6,1.2,2.6,2.8,2.6C656.4,340.4,657.5,339.9,658.1,339.2z M653.8,331.5
			c0,1,0.5,1.7,1,2.3c1.4-0.7,2.4-1.4,2.4-2.6c0-0.8-0.5-1.7-1.6-1.7C654.4,329.6,653.8,330.6,653.8,331.5z"/>
		<path class="st14" d="M615.6,348.5c-0.1,0.1-0.2,0.1-0.3,0.1c0,0-0.1,0-0.2,0c-1.3,1.3-3.1,2.8-4.6,3.9c0.1,0,0.3,0.1,0.4,0.2
			c0,0.1-0.2,0.2-0.4,0.2v8.8h-1.2v-8.4c-1.7,1.2-4,2.5-6.2,3.6c-0.2-0.3-0.5-0.7-0.7-0.9c4.4-2.1,9.3-5.5,11.9-8.4L615.6,348.5z"/>
		<path class="st14" d="M618.4,348.8c1.7,0.5,3.7,1.4,4.9,2.2l-0.6,1c-1.2-0.8-3.1-1.7-4.8-2.3L618.4,348.8z M618.3,360.1
			c5.8-1.8,9.6-5,11.6-9.5c0.3,0.3,0.7,0.5,1.1,0.7c-2,4.5-6,7.9-11.5,9.8c0,0.1-0.1,0.3-0.2,0.4L618.3,360.1z"/>
		<path class="st14" d="M644.2,350.2c0,0.1-0.1,0.1-0.2,0.2c-0.6,2-1.4,3.9-2.4,5.4c0.7,0.4,1.5,0.9,2.1,1.4l-0.7,1.1
			c-0.6-0.5-1.4-1-2.1-1.4c-1.5,2.1-3.4,3.8-5.9,5c-0.2-0.3-0.6-0.7-0.9-0.8c2.4-1.1,4.3-2.8,5.8-4.7c-1.2-0.7-2.4-1.2-3.6-1.7
			l0.6-0.9c1.2,0.4,2.4,1,3.7,1.6c0.8-1.3,1.5-2.8,2-4.3h-5.5c-1,1.7-2.3,3.3-3.8,4.5c-0.2-0.2-0.7-0.6-0.9-0.7
			c2.1-1.6,4.2-4.6,5.1-7.3l1.5,0.4c-0.1,0.2-0.2,0.2-0.4,0.2c-0.2,0.5-0.6,1.3-0.9,1.9h5.4l0.2-0.1L644.2,350.2z"/>
		<path class="st14" d="M659.6,352.8c0,0.1-0.1,0.1-0.2,0.2c-1.3,4.9-4.1,7.3-8.9,8.7c-0.1-0.3-0.5-0.7-0.7-0.9
			c4.4-1.1,7.2-3.4,8.2-7.2h-10.8v-1.1h11.3l0.2-0.1L659.6,352.8z M658.1,349.3h-9.3v-1.1h9.3V349.3z"/>
		<path class="st14" d="M673.5,350.6c-0.1,0.1-0.1,0.2-0.2,0.2c-1.7,5.3-4.4,8.7-8.9,11c-0.2-0.3-0.5-0.7-0.8-0.9
			c4.3-2.1,6.9-5.3,8.3-9.6H666c-0.9,1.5-2.2,2.9-3.7,4c-0.2-0.2-0.6-0.5-0.9-0.7c2.2-1.7,4.1-4.2,5.2-7.1l1.5,0.4
			c-0.1,0.2-0.3,0.2-0.5,0.2c-0.3,0.7-0.7,1.4-1,2.1h5.7l0.2-0.1L673.5,350.6z"/>
		<path class="st14" d="M676.1,352.2c1.5,0.3,3.3,0.9,4.4,1.5l-0.5,1c-1.1-0.5-2.9-1.2-4.4-1.5L676.1,352.2z M677.1,360.1
			c5.3-1.8,8.9-4.6,11.1-9.5c0.2,0.2,0.8,0.6,1,0.7c-2.2,4.8-6,7.9-11,9.6c0,0.1,0,0.3-0.2,0.4L677.1,360.1z M677.9,348.1
			c1.5,0.4,3.3,1,4.4,1.6l-0.5,1c-1.2-0.6-2.9-1.2-4.3-1.6L677.9,348.1z"/>
		<path class="st14" d="M699.6,351.7v9.9h-1v-0.7h-7.3V360h7.3v-3.3H692v-0.9h6.7v-3.2h-6.9v-0.9H699.6z"/>
		<path class="st14" d="M703.9,348.8c1.7,0.5,3.7,1.4,4.9,2.2l-0.6,1c-1.2-0.8-3.1-1.7-4.8-2.3L703.9,348.8z M703.9,360.1
			c5.8-1.8,9.6-5,11.6-9.5c0.3,0.3,0.7,0.5,1.1,0.7c-2,4.5-6,7.9-11.5,9.8c0,0.1-0.1,0.3-0.2,0.4L703.9,360.1z"/>
	</g>
	<g class="st13">
		<path class="st15" d="M443.9,481h-5.8l0.3,0.1c0,0.1-0.2,0.2-0.4,0.2c-0.5,3.2-1.9,6.4-5.5,8.2c-0.2-0.2-0.7-0.6-1-0.9
			c3.5-1.7,4.7-4.4,5.1-7.6h-6.8v-1.2h14V481z M441.3,476.2h-9.8V475h9.8V476.2z M441.5,473.5c0.7,0.8,1.5,2,1.9,2.8l-0.7,0.5
			c-0.4-0.8-1.2-2.1-1.9-2.8L441.5,473.5z M443.6,472.9c0.7,0.8,1.6,2,2,2.8l-0.7,0.4c-0.4-0.8-1.3-2-1.9-2.8L443.6,472.9z"/>
		<path class="st15" d="M446.9,480.8h14.8v1.3h-14.1c-0.1,0.2-0.3,0.3-0.6,0.3L446.9,480.8z"/>
		<path class="st15" d="M476.9,477c0,0.1-0.1,0.2-0.2,0.2c-0.7,2.2-1.5,4.2-2.6,5.9c0.8,0.4,1.6,1,2.3,1.5l-0.7,1.2
			c-0.6-0.5-1.5-1.1-2.3-1.5c-1.6,2.3-3.7,4.1-6.4,5.4c-0.2-0.3-0.7-0.7-1-0.9c2.6-1.2,4.7-3,6.3-5.1c-1.3-0.7-2.6-1.3-3.9-1.8
			l0.7-1c1.3,0.5,2.6,1.1,4,1.8c0.9-1.5,1.6-3,2.1-4.7h-6c-1.1,1.8-2.5,3.6-4.1,4.9c-0.2-0.2-0.7-0.6-1-0.8c2.3-1.8,4.5-5,5.6-8
			l1.7,0.4c-0.1,0.2-0.2,0.2-0.5,0.2c-0.2,0.6-0.7,1.5-1,2.1h5.9l0.2-0.1L476.9,477z"/>
		<path class="st15" d="M484.6,473.5l1.5,0.1c0,0.1-0.1,0.2-0.4,0.2V490h-1.2V485c-1.6,0.5-3.2,1-4.3,1.3c0,0.1-0.1,0.2-0.2,0.3
			l-0.5-1.4l1.3-0.3v-9.3l1.5,0.1c0,0.1-0.1,0.2-0.4,0.2v8.7c0.8-0.2,1.7-0.5,2.6-0.7V473.5z M494.8,474.9l0.7,0.3
			c0,0.1-0.1,0.2-0.2,0.2c-0.6,4-1.8,7.2-3.5,9.8c1.2,1.6,2.6,3,4.3,3.8c-0.3,0.2-0.7,0.7-0.9,1c-1.7-0.9-3.1-2.2-4.2-3.8
			c-1.2,1.6-2.7,2.9-4.3,3.8c-0.2-0.3-0.5-0.8-0.8-1c1.6-0.8,3.1-2.1,4.4-3.9c-1.4-2.4-2.4-5.3-3-8.7l1.1-0.2
			c0.5,2.9,1.4,5.6,2.7,7.8c1.3-2.1,2.3-4.8,2.9-7.8h-7.6V475h8.1L494.8,474.9z"/>
		<path class="st15" d="M513.6,485.5h-6.4c1.7,1.4,4.4,2.6,6.7,3.1c-0.3,0.2-0.6,0.7-0.8,1c-2.4-0.7-5.2-2.1-7.1-3.7v4.1H505v-4
			c-1.8,1.6-4.6,3.1-6.9,3.8c-0.2-0.3-0.5-0.8-0.8-1c2.3-0.6,5-1.9,6.7-3.3h-6.3v-1h7.4v-1.2h-5.2V478c-0.5,0.6-1.2,1.3-1.8,1.9
			c-0.2-0.3-0.6-0.7-0.8-0.8c2-1.6,3.5-3.8,4.3-5.5l1.5,0.2c0,0.1-0.1,0.2-0.4,0.2c-0.3,0.5-0.6,1.1-1,1.7h3.6
			c0.4-0.7,0.8-1.5,1-2.2l1.5,0.3c0,0.1-0.2,0.2-0.4,0.2c-0.2,0.5-0.6,1.1-0.9,1.7h6v1h-5.9v1.3h5.2v0.9h-5.2v1.3h5.3v0.9h-5.3v1.3
			h6.7v1h-6.7c-0.1,0-0.1,0.1-0.3,0.1v1.2h7.5V485.5z M505.3,477.9v-1.3h-4.3v1.3H505.3z M505.3,480.1v-1.3h-4.3v1.3H505.3z
			 M500.9,481v1.3h4.3V481H500.9z"/>
	</g>
	<g class="st13">
		<path class="st15" d="M691.7,486.4v-12.7h9.2v1.5h-7.5v3.9h7v1.5h-7v4.3h7.8v1.5H691.7z"/>
		<path class="st15" d="M709.2,486.4v-1.2c-0.6,0.9-1.4,1.4-2.6,1.4c-0.7,0-1.4-0.2-2-0.6c-0.6-0.4-1.1-1-1.4-1.7
			c-0.3-0.7-0.5-1.6-0.5-2.5c0-0.9,0.2-1.8,0.5-2.5c0.3-0.7,0.8-1.3,1.4-1.7c0.6-0.4,1.3-0.6,2.1-0.6c0.6,0,1,0.1,1.5,0.3
			c0.4,0.2,0.8,0.5,1.1,0.9v-4.6h1.5v12.7H709.2z M704.3,481.8c0,1.2,0.2,2.1,0.7,2.6c0.5,0.6,1.1,0.9,1.8,0.9
			c0.7,0,1.3-0.3,1.7-0.8c0.5-0.6,0.7-1.4,0.7-2.5c0-1.3-0.2-2.2-0.7-2.8s-1.1-0.9-1.8-0.9c-0.7,0-1.3,0.3-1.7,0.8
			C704.6,479.7,704.3,480.6,704.3,481.8z"/>
		<path class="st15" d="M712.9,487.1l1.5,0.2c0.1,0.5,0.2,0.8,0.5,1c0.4,0.3,0.9,0.4,1.6,0.4c0.7,0,1.3-0.1,1.7-0.4
			c0.4-0.3,0.7-0.7,0.8-1.2c0.1-0.3,0.1-1,0.1-2c-0.7,0.8-1.5,1.2-2.5,1.2c-1.3,0-2.2-0.5-2.9-1.4c-0.7-0.9-1-2-1-3.3
			c0-0.9,0.2-1.7,0.5-2.4c0.3-0.7,0.8-1.3,1.4-1.7s1.3-0.6,2.1-0.6c1.1,0,2,0.4,2.7,1.3v-1.1h1.4v7.9c0,1.4-0.1,2.4-0.4,3
			c-0.3,0.6-0.8,1.1-1.4,1.4c-0.6,0.3-1.4,0.5-2.3,0.5c-1.1,0-2-0.2-2.7-0.7C713.2,488.9,712.8,488.1,712.9,487.1z M714.1,481.6
			c0,1.2,0.2,2.1,0.7,2.6c0.5,0.6,1.1,0.8,1.8,0.8c0.7,0,1.3-0.3,1.8-0.8s0.7-1.4,0.7-2.6c0-1.1-0.2-2-0.7-2.5
			c-0.5-0.6-1.1-0.9-1.8-0.9c-0.7,0-1.3,0.3-1.8,0.8S714.1,480.5,714.1,481.6z"/>
		<path class="st15" d="M729.3,483.4l1.6,0.2c-0.3,0.9-0.7,1.7-1.4,2.2s-1.6,0.8-2.6,0.8c-1.3,0-2.4-0.4-3.2-1.2s-1.2-2-1.2-3.5
			c0-1.5,0.4-2.7,1.2-3.6s1.8-1.3,3.1-1.3c1.2,0,2.2,0.4,3,1.3c0.8,0.8,1.2,2,1.2,3.5c0,0.1,0,0.2,0,0.4h-6.9c0.1,1,0.3,1.8,0.9,2.3
			c0.5,0.5,1.2,0.8,1.9,0.8c0.6,0,1.1-0.2,1.5-0.4C728.7,484.5,729,484.1,729.3,483.4z M724.2,480.9h5.1c-0.1-0.8-0.3-1.4-0.6-1.7
			c-0.5-0.6-1.1-0.9-1.9-0.9c-0.7,0-1.3,0.2-1.8,0.7S724.2,480.1,724.2,480.9z"/>
		<path class="st15" d="M738,474h11.3l0.1-0.1l1.2,0.9c-0.1,0.1-0.1,0.1-0.2,0.2c-1.4,6.7-4.5,10.1-9.9,12.2c-0.2-0.3-0.5-0.8-0.8-1
			c5.2-1.9,8.1-5.2,9.3-10.9H738V474z M751.5,470.9c1.1,0,1.9,0.9,1.9,1.9c0,1.1-0.9,1.9-1.9,1.9c-1.1,0-1.9-0.9-1.9-1.9
			C749.5,471.7,750.4,470.9,751.5,470.9z M752.8,472.8c0-0.8-0.6-1.4-1.3-1.4s-1.4,0.6-1.4,1.4c0,0.7,0.6,1.4,1.4,1.4
			C752.2,474.2,752.8,473.5,752.8,472.8z"/>
		<path class="st15" d="M768.1,474.3V486h-1.3v-1.1H757v1.2h-1.2v-11.7H768.1z M766.8,483.7v-8.2H757v8.2H766.8z"/>
		<path class="st15" d="M785.2,474.2c-0.1,0.1-0.1,0.2-0.2,0.2c-1.4,6.7-4.9,10.7-10.7,12.7c-0.2-0.3-0.6-0.8-0.8-1
			c5.5-1.8,8.9-5.7,9.9-11.1h-11.6v-1.2h12l0.2-0.2L785.2,474.2z"/>
		<path class="st15" d="M799.7,476.3c0,0.1-0.1,0.1-0.2,0.1c-0.8,1.7-2.3,3.6-3.6,4.7c-0.2-0.2-0.6-0.5-0.9-0.6
			c1.3-0.9,2.6-2.6,3-3.7h-10.3v-1h10.8l0.1-0.1L799.7,476.3z M794,478.9c0,0.1-0.1,0.2-0.3,0.2c-0.4,3.2-1.6,6.2-4.5,8.1
			c-0.2-0.2-0.6-0.5-0.9-0.7c2.9-1.9,4-4.4,4.3-7.9L794,478.9z"/>
		<path class="st15" d="M815.5,473c-0.1,0.1-0.2,0.1-0.3,0.1c-0.1,0-0.1,0-0.2,0c-1.4,1.4-3.3,3-5,4.2c0.1,0.1,0.4,0.2,0.4,0.2
			c0,0.1-0.2,0.2-0.4,0.2v9.5h-1.3v-9.1c-1.9,1.3-4.3,2.8-6.8,4c-0.2-0.3-0.5-0.7-0.7-1c4.8-2.2,10.1-6,13-9.2L815.5,473z"/>
		<path class="st15" d="M821.7,474.7c0,0.2-0.2,0.3-0.4,0.3c-0.1,4.8-0.5,9.1-3.2,12.3c-0.3-0.2-0.7-0.5-1.1-0.7
			c2.6-2.9,3-7.3,3-12.1L821.7,474.7z M826.3,484.9c3-1.4,4.9-4,5.9-7.1c0.3,0.2,0.8,0.5,1.1,0.7c-1.3,3.6-3.5,6.2-7.2,8
			c-0.1,0.1-0.2,0.3-0.3,0.4l-0.9-1.2l0.2-0.3v-13l1.6,0.1c0,0.2-0.1,0.3-0.4,0.3V484.9z"/>
	</g>
	<g class="st13">
		<path class="st14" d="M638.2,569.8h11.3l0.1-0.1l1.2,0.9c-0.1,0.1-0.1,0.1-0.2,0.2c-1.4,6.7-4.5,10.1-9.9,12.2
			c-0.2-0.3-0.5-0.8-0.8-1c5.2-1.9,8.1-5.2,9.3-10.9h-10.9V569.8z M651.7,566.6c1.1,0,1.9,0.9,1.9,1.9c0,1.1-0.9,1.9-1.9,1.9
			c-1.1,0-1.9-0.9-1.9-1.9C649.7,567.4,650.6,566.6,651.7,566.6z M653,568.5c0-0.8-0.6-1.4-1.3-1.4s-1.4,0.6-1.4,1.4
			c0,0.7,0.6,1.4,1.4,1.4C652.4,569.9,653,569.2,653,568.5z"/>
		<path class="st14" d="M668.3,570v11.7H667v-1.1h-9.8v1.2H656V570H668.3z M667,579.4v-8.2h-9.8v8.2H667z"/>
		<path class="st14" d="M685.4,569.9c-0.1,0.1-0.1,0.2-0.2,0.2c-1.4,6.7-4.9,10.7-10.7,12.7c-0.2-0.3-0.6-0.8-0.8-1
			c5.5-1.8,8.9-5.7,9.9-11.1H672v-1.2h12l0.2-0.2L685.4,569.9z"/>
		<path class="st14" d="M699.9,572c0,0.1-0.1,0.1-0.2,0.1c-0.8,1.7-2.3,3.6-3.6,4.7c-0.2-0.2-0.6-0.5-0.9-0.6c1.3-0.9,2.6-2.6,3-3.7
			H688v-1h10.8l0.1-0.1L699.9,572z M694.2,574.6c0,0.1-0.1,0.2-0.3,0.2c-0.4,3.2-1.6,6.2-4.5,8.1c-0.2-0.2-0.6-0.5-0.9-0.7
			c2.9-1.9,4-4.4,4.3-7.9L694.2,574.6z"/>
		<path class="st14" d="M715.7,568.7c-0.1,0.1-0.2,0.1-0.3,0.1c-0.1,0-0.1,0-0.2,0c-1.4,1.4-3.3,3-5,4.2c0.1,0.1,0.4,0.2,0.4,0.2
			c0,0.1-0.2,0.2-0.4,0.2v9.5h-1.3v-9.1c-1.9,1.3-4.3,2.8-6.8,4c-0.2-0.3-0.5-0.7-0.7-1c4.8-2.2,10.1-6,13-9.2L715.7,568.7z"/>
		<path class="st14" d="M722,570.4c0,0.2-0.2,0.3-0.4,0.3c-0.1,4.8-0.5,9.1-3.2,12.3c-0.3-0.2-0.7-0.5-1.1-0.7c2.6-2.9,3-7.3,3-12.1
			L722,570.4z M726.5,580.6c3-1.4,4.9-4,5.9-7.1c0.3,0.2,0.8,0.5,1.1,0.7c-1.3,3.6-3.5,6.2-7.2,8c-0.1,0.1-0.2,0.3-0.3,0.4l-0.9-1.2
			l0.2-0.3v-13l1.6,0.1c0,0.2-0.1,0.3-0.4,0.3V580.6z"/>
		<path class="st14" d="M747.3,582.1c-0.5-0.4-0.9-0.8-1.5-1.4c-1.4,1.2-2.7,1.6-4.3,1.6c-2.4,0-4.1-1.6-4.1-3.8
			c0-2,1.3-3.2,2.8-3.9v-0.1c-0.8-1-1.2-2-1.2-2.9c0-1.7,1.2-3.3,3.4-3.3c1.7,0,2.9,1.2,2.9,2.8c0,1.4-0.8,2.5-3.2,3.7v0.1
			c1.5,1.7,3,3.3,3.8,4.1c0.6-0.8,1-1.9,1.4-4h1.3c-0.4,2.4-1,4-1.9,4.9c0.8,0.8,1.6,1.5,2.3,2.2H747.3z M745.1,579.8
			c-0.6-0.5-2.4-2.4-4.2-4.4c-0.8,0.4-2.1,1.3-2.1,2.9c0,1.7,1.3,2.9,3,2.9C743.3,581.1,744.4,580.6,745.1,579.8z M740.4,571.5
			c0,1.1,0.6,1.8,1.1,2.5c1.6-0.8,2.6-1.5,2.6-2.8c0-0.9-0.5-1.9-1.8-1.9C741.1,569.4,740.4,570.5,740.4,571.5z"/>
		<path class="st14" d="M652.5,593.9h-5.3l0.1,8.6c0,1.8-1.2,1.8-4.4,1.8c-0.1-0.3-0.2-0.8-0.3-1.2c1.2,0,2.6,0,2.9,0
			c0.4-0.1,0.6-0.3,0.6-0.7l-0.1-7.7c-1.8,2.7-4.7,5.4-7.6,7.1c-0.2-0.3-0.5-0.7-0.9-1c2.9-1.6,5.9-4.4,7.7-7.1h-7.1v-1.2h7.8l0-3.8
			l1.7,0.1c0,0.2-0.2,0.3-0.4,0.3l0,3.4h5.3V593.9z"/>
		<path class="st14" d="M654.8,595.7h14.8v1.3h-14.1c-0.1,0.2-0.3,0.3-0.6,0.3L654.8,595.7z"/>
		<path class="st14" d="M686.6,595.8h-5.8l0.3,0.1c0,0.1-0.2,0.2-0.4,0.2c-0.5,3.2-1.9,6.4-5.5,8.2c-0.2-0.2-0.7-0.6-1-0.9
			c3.5-1.7,4.7-4.4,5.1-7.6h-6.8v-1.2h14V595.8z M684,591h-9.8v-1.2h9.8V591z M684.2,588.4c0.7,0.8,1.5,2,1.9,2.8l-0.7,0.5
			c-0.4-0.8-1.2-2.1-1.9-2.8L684.2,588.4z M686.3,587.8c0.7,0.8,1.6,2,2,2.8l-0.7,0.4c-0.4-0.8-1.3-2-1.9-2.8L686.3,587.8z"/>
		<path class="st14" d="M699.9,593c-0.1,0.1-0.2,0.1-0.3,0.1c-0.1,0-0.2,0-0.2,0c-1.1,1.1-2.6,2.3-3.9,3.3c0.2,0.1,0.3,0.1,0.4,0.2
			c0,0.1-0.2,0.2-0.3,0.2v7.7h-1.1V597c-1.5,1.1-3.9,2.5-5.8,3.4c-0.1-0.2-0.4-0.6-0.6-0.8c3-1.4,7.6-4.1,10.7-7.4L699.9,593z"/>
		<path class="st14" d="M703.9,591.4H716v1.2h-5.5v8.6h6.7v1.2h-14.6v-1.2h6.6v-8.6h-5.4V591.4z"/>
		<path class="st14" d="M720.5,590.3c1.8,0.6,4,1.5,5.3,2.4l-0.7,1.1c-1.3-0.9-3.4-1.8-5.2-2.5L720.5,590.3z M720.4,602.6
			c6.3-1.9,10.5-5.5,12.6-10.4c0.4,0.3,0.8,0.5,1.2,0.7c-2.2,4.9-6.5,8.6-12.5,10.6c0,0.2-0.1,0.3-0.2,0.4L720.4,602.6z"/>
		<path class="st14" d="M747.7,590.7c0,0.1-0.1,0.2-0.2,0.2c-1,2.2-2.1,4.2-3.5,6.1c1.9,1.5,4.8,4.2,6.5,6l-1.1,0.9
			c-1.6-1.8-4.4-4.5-6.2-6c-1.6,1.9-4.3,4.5-6.8,6c-0.2-0.3-0.6-0.7-0.9-1c4.9-2.7,8.8-7.7,10.4-11.6h-8.7v-1.2h9.4l0.2-0.1
			L747.7,590.7z"/>
	</g>
	<g class="st13">
		<path class="st14" d="M934.1,564.3v-8.6l1.7,0.1c0,0.2-0.1,0.3-0.4,0.3v8.2H934.1z M944,555c0,0.2-0.1,0.3-0.4,0.3v5.6
			c0,3.7-1.3,7.1-6.4,9.1c-0.2-0.3-0.6-0.7-0.9-1c4.9-1.8,6-4.9,6-8.1v-6L944,555z"/>
		<path class="st14" d="M961.8,556.2c0,0.1-0.1,0.1-0.2,0.2c-1,2.3-2.5,4.2-4.2,5.7c-0.3-0.2-0.8-0.5-1.1-0.7
			c1.6-1.2,2.9-2.9,3.5-4.4h-12.7v-1.2h13.4l0.2-0.1L961.8,556.2z M954.9,559.4c0,0.1-0.2,0.3-0.4,0.3c-0.5,4.2-1.9,8.2-5.6,10.3
			c-0.2-0.2-0.7-0.6-1-0.8c3.6-2,4.9-5.7,5.3-10L954.9,559.4z"/>
		<path class="st14" d="M967.2,557.3c0,0.2-0.2,0.3-0.4,0.3c-0.1,4.8-0.5,9.1-3.2,12.3c-0.3-0.2-0.7-0.5-1.1-0.7
			c2.6-2.9,3-7.3,3-12.1L967.2,557.3z M971.8,567.5c3-1.4,4.9-4,5.9-7.1c0.3,0.2,0.8,0.5,1.1,0.7c-1.3,3.6-3.5,6.2-7.2,8
			c-0.1,0.1-0.2,0.3-0.3,0.4l-0.9-1.2l0.2-0.3v-13l1.6,0.1c0,0.2-0.1,0.3-0.4,0.3V567.5z"/>
		<path class="st14" d="M993.2,557.5c0,0.1-0.1,0.2-0.2,0.2c-0.7,2.2-1.5,4.2-2.6,5.9c0.8,0.4,1.6,1,2.3,1.5l-0.7,1.2
			c-0.6-0.5-1.5-1.1-2.3-1.5c-1.6,2.3-3.7,4.1-6.4,5.4c-0.2-0.3-0.7-0.7-1-0.9c2.6-1.2,4.7-3,6.3-5.1c-1.3-0.7-2.6-1.3-3.9-1.8
			l0.7-1c1.3,0.5,2.6,1.1,4,1.8c0.9-1.5,1.6-3,2.1-4.7h-6c-1.1,1.8-2.5,3.6-4.1,4.9c-0.2-0.2-0.7-0.6-1-0.8c2.3-1.8,4.5-5,5.6-8
			l1.7,0.4c-0.1,0.2-0.2,0.2-0.5,0.2c-0.2,0.6-0.7,1.5-1,2.1h5.9l0.2-0.1L993.2,557.5z"/>
		<path class="st14" d="M1010.4,555.7c-0.1,0.1-0.2,0.1-0.3,0.1c-0.1,0-0.1,0-0.2,0c-1.4,1.4-3.3,3-5,4.2c0.1,0.1,0.4,0.2,0.4,0.2
			c0,0.1-0.2,0.2-0.4,0.2v9.5h-1.3v-9.1c-1.9,1.3-4.3,2.8-6.8,4c-0.2-0.3-0.5-0.7-0.7-1c4.8-2.2,10.1-6,13-9.2L1010.4,555.7z"/>
		<path class="st14" d="M1026.3,569.5c-0.3-0.6-0.6-1.2-0.9-1.9c-3.7,0.4-9.7,0.8-12.5,0.9c-0.1,0.2-0.2,0.3-0.3,0.4l-0.5-1.6
			c0.5,0,1.2,0,1.9-0.1c1.2-3.4,2.9-8.7,3.8-12.2l1.7,0.5c-0.1,0.2-0.2,0.2-0.5,0.2c-1,3.3-2.5,8-3.7,11.5c2.9-0.1,7.1-0.4,9.5-0.6
			c-0.9-1.5-2.1-3.1-3.2-4.3l1.1-0.6c1.9,2,4,5.4,4.9,7.3L1026.3,569.5z"/>
		<path class="st14" d="M1035.7,554.6c-0.1,0.1-0.2,0.3-0.5,0.3c-0.1,0.8-0.3,1.7-0.4,2.4c1.7-0.1,3.7-0.4,5.2-0.9l0.2,1.2
			c-1.6,0.4-3.6,0.7-5.6,0.9c-0.9,3.4-2,6.2-3.8,8.7l-1.2-0.5c1.6-2.3,2.8-5,3.6-8.2h-3.5v-1.2h2.1c0.5,0,1.1,0,1.6,0
			c0.2-0.9,0.4-1.9,0.5-3L1035.7,554.6z M1040.4,562.1c0,1.4,0.1,2.4,0.2,3.6c1.1,0.4,2.6,1.2,3.8,2.1l-0.6,1.1
			c-1-0.7-2.2-1.4-3.1-1.9c0,1.8-0.7,3.2-3.3,3.2c-2,0-3.5-0.9-3.5-2.6c0-1.8,1.9-2.6,3.5-2.6c0.6,0,1.3,0.1,2,0.3
			c-0.1-1.1-0.2-2.3-0.2-3.1L1040.4,562.1z M1039.5,566.5c-0.7-0.3-1.5-0.4-2.1-0.4c-1.1,0-2.3,0.4-2.3,1.5c0,1,1,1.5,2.4,1.5
			c1.3,0,2.1-0.6,2.1-1.8C1039.5,567.1,1039.5,566.8,1039.5,566.5z M1044.3,560.3c-2,0-4.4,0.3-6.3,0.9l-0.2-1.1c2-0.6,4.5-1,6.4-1
			L1044.3,560.3z"/>
		<path class="st14" d="M934.3,578.4h12.1v1.2h-5.5v8.6h6.7v1.2H933v-1.2h6.6v-8.6h-5.4V578.4z"/>
		<path class="st14" d="M962.8,579.2c-0.1,0.1-0.2,0.2-0.3,0.2c-1.9,5.7-4.8,9.4-9.7,11.9c-0.2-0.3-0.5-0.7-0.9-1
			c4.6-2.2,7.5-5.8,9-10.5h-6.3c-1,1.6-2.4,3.1-4,4.4c-0.2-0.2-0.7-0.6-1-0.8c2.4-1.9,4.4-4.6,5.7-7.7l1.7,0.5
			c-0.1,0.2-0.3,0.2-0.5,0.2c-0.4,0.8-0.7,1.5-1.1,2.2h6.2l0.2-0.1L962.8,579.2z"/>
		<path class="st14" d="M976.5,577.6c0,0.1-0.1,0.2-0.2,0.2c-1,2.2-2.1,4.2-3.5,6.1c1.9,1.5,4.8,4.2,6.5,6l-1.1,0.9
			c-1.6-1.8-4.4-4.5-6.2-6c-1.6,1.9-4.3,4.5-6.8,6c-0.2-0.3-0.6-0.7-0.9-1c4.9-2.7,8.8-7.7,10.4-11.6h-8.7v-1.2h9.4l0.2-0.1
			L976.5,577.6z"/>
		<path class="st14" d="M980.8,584.6c1.3-1.4,4.1-4.5,5.2-5.6c0.5-0.5,0.9-0.7,1.4-0.7c0.5,0,1,0.2,1.4,0.7c2.3,2.1,6,6.2,8.6,9.7
			l-1.1,1c-2.5-3.5-6.2-7.7-8.2-9.5c-0.3-0.3-0.5-0.4-0.8-0.4s-0.4,0.2-0.7,0.4c-0.8,0.9-3.4,3.9-4.6,5.2c0,0,0,0.1,0,0.1
			c0,0.1-0.1,0.3-0.2,0.4L980.8,584.6z M994.2,575.6c1.1,0,2,0.9,2,2s-0.9,2-2,2c-1.1,0-2-0.9-2-2
			C992.2,576.4,993.1,575.6,994.2,575.6z M995.6,577.6c0-0.8-0.6-1.4-1.4-1.4c-0.8,0-1.4,0.6-1.4,1.4c0,0.8,0.6,1.4,1.4,1.4
			C995,579,995.6,578.3,995.6,577.6z"/>
		<path class="st14" d="M1000.4,585.6V577l1.7,0.1c0,0.2-0.1,0.3-0.4,0.3v8.2H1000.4z M1010.3,576.3c0,0.2-0.1,0.3-0.4,0.3v5.6
			c0,3.7-1.3,7.1-6.4,9.1c-0.2-0.3-0.6-0.7-0.9-1c4.9-1.8,6-4.9,6-8.1v-6L1010.3,576.3z"/>
		<path class="st14" d="M1015.1,578.4h12.1v1.2h-5.5v8.6h6.7v1.2h-14.6v-1.2h6.6v-8.6h-5.4V578.4z"/>
		<path class="st14" d="M1031.7,577.2c1.8,0.6,4,1.5,5.3,2.4l-0.7,1.1c-1.3-0.9-3.4-1.8-5.2-2.5L1031.7,577.2z M1031.6,589.5
			c6.3-1.9,10.5-5.5,12.6-10.4c0.4,0.3,0.8,0.5,1.2,0.7c-2.2,4.9-6.5,8.6-12.5,10.6c0,0.2-0.1,0.3-0.2,0.4L1031.6,589.5z"/>
		<path class="st14" d="M1058.9,577.6c0,0.1-0.1,0.2-0.2,0.2c-1,2.2-2.1,4.2-3.5,6.1c1.9,1.5,4.8,4.2,6.5,6l-1.1,0.9
			c-1.6-1.8-4.4-4.5-6.2-6c-1.6,1.9-4.3,4.5-6.8,6c-0.2-0.3-0.6-0.7-0.9-1c4.9-2.7,8.8-7.7,10.4-11.6h-8.7v-1.2h9.4l0.2-0.1
			L1058.9,577.6z"/>
	</g>
	<g class="st13">
		<path class="st14" d="M595.3,558.7h-5.8l0.3,0.1c0,0.1-0.2,0.2-0.4,0.2c-0.5,3.2-1.9,6.4-5.5,8.2c-0.2-0.2-0.7-0.6-1-0.9
			c3.5-1.7,4.7-4.4,5.1-7.6h-6.8v-1.2h14V558.7z M592.7,553.9h-9.8v-1.2h9.8V553.9z M593,551.3c0.7,0.8,1.5,2,1.9,2.8l-0.7,0.5
			c-0.4-0.8-1.2-2.1-1.9-2.8L593,551.3z M595.1,550.7c0.7,0.8,1.6,2,2,2.8l-0.7,0.4c-0.4-0.8-1.3-2-1.9-2.8L595.1,550.7z"/>
		<path class="st14" d="M598.3,558.5h14.8v1.3H599c-0.1,0.2-0.3,0.3-0.6,0.3L598.3,558.5z"/>
		<path class="st14" d="M628.3,554.8c0,0.1-0.1,0.2-0.2,0.2c-0.7,2.2-1.5,4.2-2.6,5.9c0.8,0.4,1.6,1,2.3,1.5l-0.7,1.2
			c-0.6-0.5-1.5-1.1-2.3-1.5c-1.6,2.3-3.7,4.1-6.4,5.4c-0.2-0.3-0.7-0.7-1-0.9c2.6-1.2,4.7-3,6.3-5.1c-1.3-0.7-2.6-1.3-3.9-1.8
			l0.7-1c1.3,0.5,2.6,1.1,4,1.8c0.9-1.5,1.6-3,2.1-4.7h-6c-1.1,1.8-2.5,3.6-4.1,4.9c-0.2-0.2-0.7-0.6-1-0.8c2.3-1.8,4.5-5,5.6-8
			l1.7,0.4c-0.1,0.2-0.2,0.2-0.5,0.2c-0.2,0.6-0.7,1.5-1,2.1h5.9l0.2-0.1L628.3,554.8z"/>
	</g>
	<g class="st13">
		<path class="st14" d="M230.7,727.1h-5.3l0.3,0.1c0,0.1-0.1,0.2-0.3,0.2c-0.4,2.9-1.7,5.8-4.9,7.4c-0.2-0.2-0.6-0.6-0.9-0.8
			c3.2-1.6,4.3-4,4.6-6.9h-6.1V726h12.6V727.1z M228.4,722.7h-8.9v-1.1h8.9V722.7z M228.6,720.4c0.7,0.7,1.4,1.8,1.8,2.5l-0.6,0.4
			c-0.3-0.7-1.1-1.9-1.7-2.5L228.6,720.4z M230.5,719.8c0.7,0.7,1.4,1.8,1.8,2.5l-0.7,0.4c-0.3-0.7-1.1-1.8-1.8-2.5L230.5,719.8z"/>
		<path class="st14" d="M233.4,726.9h13.4v1.1H234c-0.1,0.2-0.3,0.3-0.5,0.3L233.4,726.9z"/>
		<path class="st14" d="M260.5,723.5c0,0.1-0.1,0.1-0.2,0.2c-0.6,2-1.4,3.8-2.4,5.3c0.7,0.4,1.5,0.9,2.1,1.3l-0.7,1.1
			c-0.6-0.4-1.4-1-2.1-1.4c-1.5,2-3.4,3.7-5.8,4.9c-0.2-0.3-0.6-0.7-0.9-0.8c2.3-1.1,4.2-2.7,5.7-4.6c-1.2-0.7-2.4-1.2-3.5-1.7
			l0.6-0.9c1.2,0.4,2.4,1,3.6,1.6c0.8-1.3,1.5-2.7,1.9-4.2h-5.4c-1,1.6-2.3,3.2-3.7,4.4c-0.2-0.2-0.6-0.5-0.9-0.7
			c2.1-1.6,4.1-4.5,5-7.2l1.5,0.4c-0.1,0.2-0.2,0.2-0.4,0.2c-0.2,0.5-0.6,1.3-0.9,1.9h5.3l0.2-0.1L260.5,723.5z"/>
	</g>
	<g class="st13">
		<path class="st14" d="M372.5,607.8v-12.7h9.2v1.5h-7.5v3.9h7v1.5h-7v4.3h7.8v1.5H372.5z"/>
		<path class="st14" d="M383.1,607.8l3.4-4.8l-3.1-4.4h1.9l1.4,2.2c0.3,0.4,0.5,0.8,0.6,1c0.3-0.4,0.5-0.7,0.7-1l1.5-2.2h1.9
			l-3.2,4.3l3.4,4.9h-1.9l-1.9-2.9l-0.5-0.8l-2.4,3.6H383.1z"/>
		<path class="st14" d="M393,611.4v-12.7h1.4v1.2c0.3-0.5,0.7-0.8,1.1-1.1s0.9-0.3,1.5-0.3c0.8,0,1.5,0.2,2.1,0.6
			c0.6,0.4,1.1,1,1.4,1.7s0.5,1.5,0.5,2.4c0,0.9-0.2,1.8-0.5,2.5s-0.8,1.3-1.5,1.7s-1.3,0.6-2,0.6c-0.5,0-1-0.1-1.4-0.3
			c-0.4-0.2-0.8-0.5-1-0.8v4.5H393z M394.4,603.3c0,1.2,0.2,2.1,0.7,2.6c0.5,0.6,1.1,0.8,1.7,0.8c0.7,0,1.3-0.3,1.8-0.9
			c0.5-0.6,0.7-1.5,0.7-2.7c0-1.2-0.2-2-0.7-2.6c-0.5-0.6-1.1-0.9-1.7-0.9c-0.7,0-1.2,0.3-1.8,0.9
			C394.6,601.2,394.4,602.1,394.4,603.3z"/>
		<path class="st14" d="M409.1,604.9l1.6,0.2c-0.3,0.9-0.7,1.7-1.4,2.2c-0.7,0.5-1.6,0.8-2.6,0.8c-1.3,0-2.4-0.4-3.2-1.2
			c-0.8-0.8-1.2-2-1.2-3.5c0-1.5,0.4-2.7,1.2-3.6s1.8-1.3,3.1-1.3c1.2,0,2.2,0.4,3,1.3c0.8,0.8,1.2,2,1.2,3.5c0,0.1,0,0.2,0,0.4
			h-6.9c0.1,1,0.3,1.8,0.9,2.3c0.5,0.5,1.2,0.8,1.9,0.8c0.6,0,1.1-0.2,1.5-0.5C408.5,606,408.9,605.5,409.1,604.9z M404,602.4h5.1
			c-0.1-0.8-0.3-1.4-0.6-1.7c-0.5-0.6-1.1-0.9-1.9-0.9c-0.7,0-1.3,0.2-1.8,0.7S404,601.6,404,602.4z"/>
		<path class="st14" d="M412.7,607.8v-9.2h1.4v1.4c0.4-0.7,0.7-1.1,1-1.3c0.3-0.2,0.6-0.3,1-0.3c0.5,0,1.1,0.2,1.6,0.5l-0.5,1.4
			c-0.4-0.2-0.8-0.3-1.1-0.3c-0.3,0-0.6,0.1-0.9,0.3c-0.3,0.2-0.5,0.5-0.6,0.9c-0.2,0.6-0.3,1.2-0.3,1.8v4.8H412.7z"/>
		<path class="st14" d="M418.6,596.9v-1.8h1.6v1.8H418.6z M418.6,607.8v-9.2h1.6v9.2H418.6z"/>
		<path class="st14" d="M428.8,604.9l1.6,0.2c-0.3,0.9-0.7,1.7-1.4,2.2c-0.7,0.5-1.6,0.8-2.6,0.8c-1.3,0-2.4-0.4-3.2-1.2
			c-0.8-0.8-1.2-2-1.2-3.5c0-1.5,0.4-2.7,1.2-3.6s1.8-1.3,3.1-1.3c1.2,0,2.2,0.4,3,1.3c0.8,0.8,1.2,2,1.2,3.5c0,0.1,0,0.2,0,0.4
			h-6.9c0.1,1,0.3,1.8,0.9,2.3c0.5,0.5,1.2,0.8,1.9,0.8c0.6,0,1.1-0.2,1.5-0.5C428.2,606,428.6,605.5,428.8,604.9z M423.7,602.4h5.1
			c-0.1-0.8-0.3-1.4-0.6-1.7c-0.5-0.6-1.1-0.9-1.9-0.9c-0.7,0-1.3,0.2-1.8,0.7S423.7,601.6,423.7,602.4z"/>
		<path class="st14" d="M432.4,607.8v-9.2h1.4v1.3c0.7-1,1.6-1.5,2.9-1.5c0.6,0,1.1,0.1,1.5,0.3c0.5,0.2,0.8,0.5,1,0.8
			c0.2,0.3,0.4,0.7,0.5,1.2c0.1,0.3,0.1,0.8,0.1,1.5v5.6h-1.6v-5.6c0-0.6-0.1-1.1-0.2-1.4s-0.3-0.6-0.6-0.8
			c-0.3-0.2-0.7-0.3-1.1-0.3c-0.7,0-1.2,0.2-1.7,0.6s-0.7,1.2-0.7,2.4v5H432.4z"/>
		<path class="st14" d="M448.2,604.5l1.5,0.2c-0.2,1.1-0.6,1.9-1.3,2.5c-0.7,0.6-1.5,0.9-2.5,0.9c-1.3,0-2.3-0.4-3-1.2
			c-0.8-0.8-1.1-2-1.1-3.5c0-1,0.2-1.9,0.5-2.6c0.3-0.7,0.8-1.3,1.5-1.7s1.4-0.6,2.2-0.6c1,0,1.8,0.3,2.4,0.8c0.6,0.5,1,1.2,1.2,2.1
			l-1.5,0.2c-0.1-0.6-0.4-1.1-0.8-1.4s-0.8-0.5-1.3-0.5c-0.8,0-1.4,0.3-1.9,0.8s-0.7,1.5-0.7,2.7c0,1.2,0.2,2.1,0.7,2.7
			c0.5,0.6,1.1,0.8,1.9,0.8c0.6,0,1.1-0.2,1.5-0.6C447.8,605.8,448.1,605.3,448.2,604.5z"/>
		<path class="st14" d="M457.4,604.9l1.6,0.2c-0.3,0.9-0.7,1.7-1.4,2.2c-0.7,0.5-1.6,0.8-2.6,0.8c-1.3,0-2.4-0.4-3.2-1.2
			c-0.8-0.8-1.2-2-1.2-3.5c0-1.5,0.4-2.7,1.2-3.6s1.8-1.3,3.1-1.3c1.2,0,2.2,0.4,3,1.3c0.8,0.8,1.2,2,1.2,3.5c0,0.1,0,0.2,0,0.4
			h-6.9c0.1,1,0.3,1.8,0.9,2.3c0.5,0.5,1.2,0.8,1.9,0.8c0.6,0,1.1-0.2,1.5-0.5C456.8,606,457.1,605.5,457.4,604.9z M452.2,602.4h5.1
			c-0.1-0.8-0.3-1.4-0.6-1.7c-0.5-0.6-1.1-0.9-1.9-0.9c-0.7,0-1.3,0.2-1.8,0.7S452.3,601.6,452.2,602.4z"/>
		<path class="st14" d="M466,607.8v-12.7h4.8c0.8,0,1.5,0,1.9,0.1c0.6,0.1,1.1,0.3,1.6,0.6c0.4,0.3,0.8,0.7,1,1.2
			c0.3,0.5,0.4,1.1,0.4,1.7c0,1.1-0.3,2-1,2.7c-0.7,0.7-1.9,1.1-3.7,1.1h-3.3v5.2H466z M467.7,601.2h3.3c1.1,0,1.9-0.2,2.3-0.6
			c0.5-0.4,0.7-1,0.7-1.7c0-0.5-0.1-1-0.4-1.4c-0.3-0.4-0.6-0.6-1.1-0.7c-0.3-0.1-0.8-0.1-1.6-0.1h-3.2V601.2z"/>
		<path class="st14" d="M477.6,607.8v-12.7h1.6v12.7H477.6z"/>
		<path class="st14" d="M487.6,606.7c-0.6,0.5-1.1,0.8-1.7,1c-0.5,0.2-1.1,0.3-1.7,0.3c-1,0-1.8-0.2-2.3-0.7
			c-0.5-0.5-0.8-1.1-0.8-1.9c0-0.5,0.1-0.9,0.3-1.2s0.5-0.7,0.8-0.9c0.3-0.2,0.7-0.4,1.1-0.5c0.3-0.1,0.8-0.2,1.4-0.2
			c1.3-0.2,2.2-0.3,2.8-0.5c0-0.2,0-0.3,0-0.4c0-0.6-0.1-1.1-0.4-1.3c-0.4-0.4-1-0.5-1.8-0.5c-0.7,0-1.3,0.1-1.6,0.4
			s-0.6,0.7-0.8,1.4l-1.5-0.2c0.1-0.7,0.4-1.2,0.7-1.6c0.3-0.4,0.8-0.7,1.4-0.9c0.6-0.2,1.3-0.3,2.1-0.3c0.8,0,1.4,0.1,1.9,0.3
			s0.9,0.4,1.1,0.7c0.2,0.3,0.4,0.6,0.5,1.1c0.1,0.3,0.1,0.7,0.1,1.4v2.1c0,1.4,0,2.4,0.1,2.7c0.1,0.4,0.2,0.8,0.4,1.1h-1.6
			C487.7,607.5,487.6,607.1,487.6,606.7z M487.5,603.2c-0.6,0.2-1.4,0.4-2.5,0.6c-0.6,0.1-1.1,0.2-1.4,0.3c-0.3,0.1-0.5,0.3-0.6,0.5
			c-0.1,0.2-0.2,0.5-0.2,0.7c0,0.4,0.2,0.8,0.5,1c0.3,0.3,0.8,0.4,1.4,0.4c0.6,0,1.1-0.1,1.6-0.4c0.5-0.3,0.8-0.6,1-1.1
			c0.2-0.4,0.3-0.9,0.3-1.6V603.2z"/>
		<path class="st14" d="M494.9,606.4l0.2,1.4c-0.4,0.1-0.8,0.1-1.2,0.1c-0.6,0-1-0.1-1.3-0.3s-0.5-0.4-0.7-0.7
			c-0.1-0.3-0.2-0.9-0.2-1.8v-5.3h-1.1v-1.2h1.1v-2.3l1.5-0.9v3.2h1.6v1.2h-1.6v5.4c0,0.4,0,0.7,0.1,0.9s0.1,0.2,0.3,0.3
			c0.1,0.1,0.3,0.1,0.5,0.1C494.3,606.5,494.6,606.5,494.9,606.4z"/>
		<path class="st14" d="M496.7,607.8v-8h-1.4v-1.2h1.4v-1c0-0.6,0.1-1.1,0.2-1.4c0.1-0.4,0.4-0.7,0.8-1c0.4-0.3,0.9-0.4,1.6-0.4
			c0.4,0,0.9,0.1,1.5,0.2l-0.2,1.4c-0.3-0.1-0.6-0.1-0.9-0.1c-0.5,0-0.8,0.1-1,0.3c-0.2,0.2-0.3,0.6-0.3,1.1v0.8h1.8v1.2h-1.8v8
			H496.7z"/>
		<path class="st14" d="M500.7,603.2c0-1.7,0.5-3,1.4-3.8c0.8-0.7,1.8-1,2.9-1c1.3,0,2.3,0.4,3.1,1.2c0.8,0.8,1.2,2,1.2,3.4
			c0,1.2-0.2,2.1-0.5,2.8c-0.4,0.7-0.9,1.2-1.5,1.6s-1.4,0.6-2.2,0.6c-1.3,0-2.3-0.4-3.1-1.2C501.1,606,500.7,604.8,500.7,603.2z
			 M502.3,603.2c0,1.2,0.3,2.1,0.8,2.6c0.5,0.6,1.2,0.9,1.9,0.9c0.8,0,1.4-0.3,1.9-0.9s0.8-1.5,0.8-2.7c0-1.1-0.3-2-0.8-2.6
			c-0.5-0.6-1.2-0.9-1.9-0.9c-0.8,0-1.4,0.3-1.9,0.9C502.6,601.2,502.3,602.1,502.3,603.2z"/>
		<path class="st14" d="M511.1,607.8v-9.2h1.4v1.4c0.4-0.7,0.7-1.1,1-1.3c0.3-0.2,0.6-0.3,1-0.3c0.5,0,1.1,0.2,1.6,0.5l-0.5,1.4
			c-0.4-0.2-0.8-0.3-1.1-0.3c-0.3,0-0.6,0.1-0.9,0.3c-0.3,0.2-0.5,0.5-0.6,0.9c-0.2,0.6-0.3,1.2-0.3,1.8v4.8H511.1z"/>
		<path class="st14" d="M517.1,607.8v-9.2h1.4v1.3c0.3-0.5,0.7-0.8,1.2-1.1c0.5-0.3,1-0.4,1.6-0.4c0.7,0,1.2,0.1,1.7,0.4
			c0.4,0.3,0.7,0.7,0.9,1.2c0.7-1.1,1.7-1.6,2.8-1.6c0.9,0,1.6,0.3,2.1,0.8c0.5,0.5,0.7,1.3,0.7,2.3v6.3H528v-5.8
			c0-0.6-0.1-1.1-0.2-1.3c-0.1-0.3-0.3-0.5-0.5-0.7c-0.3-0.2-0.6-0.3-0.9-0.3c-0.6,0-1.2,0.2-1.6,0.6c-0.4,0.4-0.6,1.1-0.6,2.1v5.3
			h-1.6v-6c0-0.7-0.1-1.2-0.4-1.6s-0.7-0.5-1.2-0.5c-0.4,0-0.8,0.1-1.2,0.3s-0.6,0.6-0.8,1c-0.2,0.4-0.3,1.1-0.3,1.9v4.8H517.1z"/>
	</g>
	<g class="st13">
		<path d="M39.5,628.1c-0.1,0.1-0.2,0.2-0.3,0.2c-1.9,5.7-4.8,9.4-9.7,11.9c-0.2-0.3-0.5-0.7-0.9-1c4.6-2.2,7.5-5.8,9-10.5h-6.3
			c-1,1.6-2.4,3.1-4,4.4c-0.2-0.2-0.7-0.6-1-0.8c2.4-1.9,4.4-4.6,5.7-7.7l1.7,0.5c-0.1,0.2-0.3,0.2-0.5,0.2
			c-0.4,0.8-0.7,1.5-1.1,2.2h6.2l0.2-0.1L39.5,628.1z"/>
		<path d="M55.4,630.5c0,0.1-0.1,0.1-0.2,0.2c-1.5,5.4-4.4,8-9.7,9.4c-0.2-0.3-0.5-0.8-0.7-1c4.8-1.2,7.8-3.7,8.9-7.8H41.9v-1.2
			h12.3l0.2-0.1L55.4,630.5z M53.7,626.7H43.6v-1.2h10.1V626.7z"/>
		<path d="M64,624.7l1.8,0.1c0,0.2-0.2,0.3-0.5,0.4v2.8H70l0.3-0.1l1.1,0.5c0,0.1-0.1,0.1-0.2,0.2c-0.8,6.2-3.4,9.8-9,11.8
			c-0.2-0.3-0.5-0.8-0.8-1.1c5.3-1.8,7.7-5.1,8.3-10.1h-10v4.4h-1.2v-5.6H64V624.7z"/>
		<path d="M84.4,634.2c-1.8-1-4.3-2.1-6.2-2.9v8.8h-1.3v-15.4l1.8,0.1c0,0.2-0.2,0.3-0.5,0.4v5.2l0.3-0.4c2.1,0.8,4.8,2,6.7,3
			L84.4,634.2z M82.5,625.8c0.8,0.7,1.9,1.8,2.4,2.6l-0.7,0.5c-0.5-0.8-1.6-1.9-2.4-2.6L82.5,625.8z M84.9,624.3
			c0.8,0.7,1.9,1.8,2.4,2.6l-0.6,0.5c-0.5-0.8-1.6-1.9-2.4-2.6L84.9,624.3z"/>
		<path d="M103.5,626.4c0,0.1-0.1,0.1-0.2,0.2c-1,2.3-2.5,4.2-4.2,5.7c-0.3-0.2-0.8-0.5-1.1-0.7c1.6-1.2,2.9-2.9,3.5-4.4H88.9v-1.2
			h13.4l0.2-0.1L103.5,626.4z M96.6,629.6c0,0.1-0.2,0.3-0.4,0.3c-0.5,4.2-1.9,8.2-5.6,10.3c-0.2-0.2-0.7-0.6-1-0.8
			c3.6-2,4.9-5.7,5.3-10L96.6,629.6z"/>
		<path d="M105.6,626.9h11.3l0.1-0.1l1.2,0.9c-0.1,0.1-0.1,0.1-0.2,0.2c-1.4,6.7-4.5,10.1-9.9,12.2c-0.2-0.3-0.5-0.8-0.8-1
			c5.2-1.9,8.1-5.2,9.3-10.9h-10.9V626.9z M119.1,623.7c1.1,0,1.9,0.9,1.9,1.9c0,1.1-0.9,1.9-1.9,1.9c-1.1,0-1.9-0.9-1.9-1.9
			C117.1,624.5,118,623.7,119.1,623.7z M120.4,625.7c0-0.8-0.6-1.4-1.3-1.4s-1.4,0.6-1.4,1.4c0,0.7,0.6,1.4,1.4,1.4
			C119.8,627,120.4,626.4,120.4,625.7z"/>
		<path d="M123.5,634.5v-8.6l1.7,0.1c0,0.2-0.1,0.3-0.4,0.3v8.2H123.5z M133.4,625.2c0,0.2-0.1,0.3-0.4,0.3v5.6
			c0,3.7-1.3,7.1-6.4,9.1c-0.2-0.3-0.6-0.7-0.9-1c4.9-1.8,6-4.9,6-8.1v-6L133.4,625.2z"/>
		<path d="M136.2,640.2l16-16l0.5,0.5l-16,16L136.2,640.2z"/>
		<path d="M48.3,651.3h-3.7v1.2c0,3.4-1,6.8-5.7,8.9c-0.2-0.3-0.6-0.6-0.9-0.9c4.5-1.9,5.3-5.1,5.3-8v-1.2h-5.7v4.4h-1.3v-4.4h-3.5
			v-1.2h3.5v-3.8l1.7,0.1c0,0.2-0.2,0.3-0.4,0.4v3.4h5.7V646l1.7,0.1c0,0.2-0.2,0.3-0.4,0.3v3.6h3.7V651.3z"/>
		<path d="M50.6,652.8h14.8v1.3H51.3c-0.1,0.2-0.3,0.3-0.6,0.3L50.6,652.8z"/>
		<path d="M78.5,655.4c-1.8-1-4.3-2.1-6.2-2.9v8.8H71V646l1.8,0.1c0,0.2-0.2,0.3-0.5,0.4v5.2l0.3-0.4c2.1,0.8,4.8,2,6.7,3
			L78.5,655.4z M76.7,647.1c0.8,0.7,1.9,1.8,2.4,2.6l-0.7,0.5c-0.5-0.8-1.6-1.9-2.4-2.6L76.7,647.1z M79.1,645.6
			c0.8,0.7,1.9,1.8,2.4,2.6l-0.6,0.5c-0.5-0.8-1.6-1.9-2.4-2.6L79.1,645.6z"/>
		<path d="M88.7,648.8c-0.1,0.1-0.2,0.2-0.5,0.3c-0.7,4.3-2.2,8.7-4.3,11.4c-0.3-0.2-0.8-0.5-1.2-0.6c2-2.4,3.5-6.9,4.1-11.4
			L88.7,648.8z M97.6,660.3c-0.8-3.1-2.9-8.1-4.7-11.4l1.2-0.5c1.9,3.2,3.9,8.2,4.9,11.4L97.6,660.3z M97.4,645.2c1.1,0,2,0.9,2,2
			c0,1.1-0.9,2-2,2c-1.1,0-2-0.9-2-2C95.4,646.1,96.3,645.2,97.4,645.2z M98.8,647.2c0-0.8-0.6-1.4-1.4-1.4c-0.8,0-1.4,0.6-1.4,1.4
			c0,0.8,0.6,1.4,1.4,1.4C98.2,648.6,98.8,648,98.8,647.2z"/>
		<path d="M101,652.8h14.8v1.3h-14.1c-0.1,0.2-0.3,0.3-0.6,0.3L101,652.8z"/>
		<path d="M132.8,653h-6l0.3,0.1c0,0.1-0.2,0.2-0.4,0.2c-0.5,3.3-1.7,6.2-5.5,8.1c-0.2-0.2-0.7-0.7-1-0.9c3.7-1.8,4.7-4.3,5.1-7.5
			h-6.9v-1.2h14.2V653z M131,648h-10.9v-1.2H131V648z"/>
		<path d="M145.9,650.2c-0.1,0.1-0.2,0.1-0.3,0.1c-0.1,0-0.2,0-0.2,0c-1.1,1.1-2.6,2.3-3.9,3.3c0.2,0.1,0.3,0.1,0.4,0.2
			c0,0.1-0.2,0.2-0.3,0.2v7.7h-1.1v-7.4c-1.5,1.1-3.9,2.5-5.8,3.4c-0.1-0.2-0.4-0.6-0.6-0.8c3-1.4,7.6-4.1,10.7-7.4L145.9,650.2z"/>
	</g>
	<g class="st13">
		<path d="M40.3,746.5h12.1v1.2H47v8.6h6.7v1.2H39.1v-1.2h6.6v-8.6h-5.4V746.5z"/>
		<path d="M56.9,745.3c1.8,0.6,4,1.5,5.3,2.4l-0.7,1.1c-1.3-0.9-3.4-1.8-5.2-2.5L56.9,745.3z M56.8,757.6
			c6.3-1.9,10.5-5.5,12.6-10.4c0.4,0.3,0.8,0.5,1.2,0.7c-2.2,4.9-6.5,8.6-12.5,10.6c0,0.2-0.1,0.3-0.2,0.4L56.8,757.6z"/>
		<path d="M85,746.9c0,0.1-0.1,0.2-0.2,0.2c-0.7,2.2-1.5,4.2-2.6,5.9c0.8,0.4,1.6,1,2.3,1.5l-0.7,1.2c-0.6-0.5-1.5-1.1-2.3-1.5
			c-1.6,2.3-3.7,4.1-6.4,5.4c-0.2-0.3-0.7-0.7-1-0.9c2.6-1.2,4.7-3,6.3-5.1c-1.3-0.7-2.6-1.3-3.9-1.8l0.7-1c1.3,0.5,2.6,1.1,4,1.8
			c0.9-1.5,1.6-3,2.1-4.7h-6c-1.1,1.8-2.5,3.6-4.1,4.9c-0.2-0.2-0.7-0.6-1-0.8c2.3-1.8,4.5-5,5.6-8l1.7,0.4
			c-0.1,0.2-0.2,0.2-0.5,0.2c-0.2,0.6-0.7,1.5-1,2.1h5.9l0.2-0.1L85,746.9z"/>
		<path d="M88.3,750.7h14.8v1.3H89c-0.1,0.2-0.3,0.3-0.6,0.3L88.3,750.7z"/>
		<path d="M105.7,746.1h11.3l0.1-0.1l1.2,0.9c-0.1,0.1-0.1,0.1-0.2,0.2c-1.4,6.7-4.5,10.1-9.9,12.2c-0.2-0.3-0.5-0.8-0.8-1
			c5.2-1.9,8.1-5.2,9.3-10.9h-10.9V746.1z M119.2,742.9c1.1,0,1.9,0.9,1.9,1.9c0,1.1-0.9,1.9-1.9,1.9c-1.1,0-1.9-0.9-1.9-1.9
			C117.2,743.7,118.1,742.9,119.2,742.9z M120.5,744.8c0-0.8-0.6-1.4-1.3-1.4s-1.4,0.6-1.4,1.4c0,0.7,0.6,1.4,1.4,1.4
			C119.9,746.2,120.5,745.5,120.5,744.8z"/>
		<path d="M135.7,749.7c0,0.1-0.1,0.1-0.2,0.2c-1.5,5.4-4.4,8-9.7,9.4c-0.2-0.3-0.5-0.8-0.7-1c4.8-1.2,7.8-3.7,8.9-7.8h-11.7v-1.2
			h12.3l0.2-0.1L135.7,749.7z M134.1,745.9H124v-1.2h10.1V745.9z"/>
		<path d="M61.2,766.3c-0.1,0.1-0.2,0.1-0.3,0.1c-0.1,0-0.1,0-0.2,0c-1.4,1.4-3.3,3-5,4.2c0.1,0.1,0.4,0.2,0.4,0.2
			c0,0.1-0.2,0.2-0.4,0.2v9.5h-1.3v-9.1c-1.9,1.3-4.3,2.8-6.8,4c-0.2-0.3-0.5-0.7-0.7-1c4.8-2.2,10.1-6,13-9.2L61.2,766.3z"/>
		<path d="M74.9,767.4c0,0.1-0.1,0.1-0.2,0.1c-0.8,1.9-2,4.1-3.4,6c1.9,1.5,4.9,4.2,6.5,6l-1.1,0.9c-1.6-1.8-4.4-4.5-6.2-5.9
			c-1.5,1.9-4.2,4.5-6.8,5.9c-0.2-0.3-0.6-0.7-0.9-1c4.9-2.7,8.6-7.6,10.2-11.5h-8.7v-1.2h9.4l0.2-0.1L74.9,767.4z M74.9,765
			c0.7,0.7,1.6,1.9,2,2.8l-0.7,0.4c-0.4-0.8-1.2-2-2-2.7L74.9,765z M77.1,764.2c0.6,0.6,1.6,1.9,2,2.7l-0.7,0.4
			c-0.4-0.8-1.3-2.1-1.9-2.7L77.1,764.2z"/>
		<path d="M81.6,767c1.2,1.5,2.5,3.6,3,5l-1.2,0.6c-0.5-1.4-1.8-3.6-2.9-5.1L81.6,767z M94,767.2c-0.1,0.2-0.2,0.2-0.5,0.2
			c-1.8,6.6-5.2,10.5-10.2,12.8c-0.2-0.3-0.6-0.7-0.9-0.9c4.9-2.1,8.1-5.8,9.8-12.6L94,767.2z"/>
		<path d="M96.5,772h14.8v1.3H97.2c-0.1,0.2-0.3,0.3-0.6,0.3L96.5,772z"/>
		<path d="M125.1,767c0,0.1-0.1,0.2-0.2,0.2c-1,2.2-2.1,4.2-3.5,6.1c1.9,1.5,4.8,4.2,6.5,6l-1.1,0.9c-1.6-1.8-4.4-4.5-6.2-6
			c-1.6,1.9-4.3,4.5-6.8,6c-0.2-0.3-0.6-0.7-0.9-1c4.9-2.7,8.8-7.7,10.4-11.6h-8.7v-1.2h9.4l0.2-0.1L125.1,767z"/>
	</g>
	<g class="st13">
		<path class="st15" d="M384.1,712.8v-8.6l1.7,0.1c0,0.2-0.1,0.3-0.4,0.3v8.2H384.1z M394,703.5c0,0.2-0.1,0.3-0.4,0.3v5.6
			c0,3.7-1.3,7.1-6.4,9.1c-0.2-0.3-0.6-0.7-0.9-1c4.9-1.8,6-4.9,6-8.1v-6L394,703.5z"/>
		<path class="st15" d="M411.8,704.6c0,0.1-0.1,0.1-0.2,0.2c-1,2.3-2.5,4.2-4.2,5.7c-0.3-0.2-0.8-0.5-1.1-0.7
			c1.6-1.2,2.9-2.9,3.5-4.4h-12.7v-1.2h13.4l0.2-0.1L411.8,704.6z M404.9,707.8c0,0.1-0.2,0.3-0.4,0.3c-0.5,4.2-1.9,8.2-5.6,10.3
			c-0.2-0.2-0.7-0.6-1-0.8c3.6-2,4.9-5.7,5.3-10L404.9,707.8z"/>
		<path class="st15" d="M417.2,705.8c0,0.2-0.2,0.3-0.4,0.3c-0.1,4.8-0.5,9.1-3.2,12.3c-0.3-0.2-0.7-0.5-1.1-0.7
			c2.6-2.9,3-7.3,3-12.1L417.2,705.8z M421.8,716c3-1.4,4.9-4,5.9-7.1c0.3,0.2,0.8,0.5,1.1,0.7c-1.3,3.6-3.5,6.2-7.2,8
			c-0.1,0.1-0.2,0.3-0.3,0.4l-0.9-1.2l0.2-0.3v-13l1.6,0.1c0,0.2-0.1,0.3-0.4,0.3V716z"/>
		<path class="st15" d="M443.2,706c0,0.1-0.1,0.2-0.2,0.2c-0.7,2.2-1.5,4.2-2.6,5.9c0.8,0.4,1.6,1,2.3,1.5l-0.7,1.2
			c-0.6-0.5-1.5-1.1-2.3-1.5c-1.6,2.3-3.7,4.1-6.4,5.4c-0.2-0.3-0.7-0.7-1-0.9c2.6-1.2,4.7-3,6.3-5.1c-1.3-0.7-2.6-1.3-3.9-1.8
			l0.7-1c1.3,0.5,2.6,1.1,4,1.8c0.9-1.5,1.6-3,2.1-4.7h-6c-1.1,1.8-2.5,3.6-4.1,4.9c-0.2-0.2-0.7-0.6-1-0.8c2.3-1.8,4.5-5,5.6-8
			l1.7,0.4c-0.1,0.2-0.2,0.2-0.5,0.2c-0.2,0.6-0.7,1.5-1,2.1h5.9l0.2-0.1L443.2,706z"/>
		<path class="st15" d="M460.4,704.1c-0.1,0.1-0.2,0.1-0.3,0.1c-0.1,0-0.1,0-0.2,0c-1.4,1.4-3.3,3-5,4.2c0.1,0.1,0.4,0.2,0.4,0.2
			c0,0.1-0.2,0.2-0.4,0.2v9.5h-1.3v-9.1c-1.9,1.3-4.3,2.8-6.8,4c-0.2-0.3-0.5-0.7-0.7-1c4.8-2.2,10.1-6,13-9.2L460.4,704.1z"/>
		<path class="st15" d="M476.3,718c-0.3-0.6-0.6-1.2-0.9-1.9c-3.7,0.4-9.7,0.8-12.5,0.9c-0.1,0.2-0.2,0.3-0.3,0.4l-0.5-1.6
			c0.5,0,1.2,0,1.9-0.1c1.2-3.4,2.9-8.7,3.8-12.2l1.7,0.5c-0.1,0.2-0.2,0.2-0.5,0.2c-1,3.3-2.5,8-3.7,11.5c2.9-0.1,7.1-0.4,9.5-0.6
			c-0.9-1.5-2.1-3.1-3.2-4.3l1.1-0.6c1.9,2,4,5.4,4.9,7.3L476.3,718z"/>
		<path class="st15" d="M372.7,739.1h-4.8v0.9H367v-5.6c-0.2,0.3-0.4,0.6-0.6,0.8l-0.4-0.4c-0.1,1.8-0.5,3.6-1.1,5.1
			c-0.2-0.2-0.6-0.5-0.9-0.6c1-2.3,1.1-5.5,1.1-7.8v-4.6h7.2v3.7h-6.2v1c0,0.8,0,1.8-0.1,2.8c0.7-0.9,1.3-2.3,1.7-3.6l1.2,0.4
			c0,0.1-0.2,0.2-0.3,0.2c-0.1,0.4-0.3,0.7-0.4,1.1h1.4c0.2-0.5,0.4-1.2,0.6-1.6l1.2,0.4c0,0.1-0.2,0.1-0.3,0.1
			c-0.1,0.3-0.3,0.7-0.5,1h2.1v0.9h-2.2v1.2h2v0.8h-2v1.2h2v0.8h-2v1.2h2.3V739.1z M372.5,724.6v1h-8.1v-1H372.5z M371.2,727.8h-5.1
			v1.8h5.1V727.8z M369.5,734.3v-1.2h-1.6v1.2H369.5z M369.5,736.3v-1.2h-1.6v1.2H369.5z M369.5,738.3v-1.2h-1.6v1.2H369.5z
			 M376.4,737.9c-0.1,0.1-0.2,0.1-0.3,0.1c-0.6,0.7-1.9,1.7-3,2.2c-0.2-0.2-0.5-0.5-0.8-0.8c1.1-0.5,2.4-1.4,3-2.2L376.4,737.9z
			 M373.8,727.5h2.1c0.1-0.6,0.2-1.2,0.3-1.8h-3v-1.1h7.4v1.1h-3.3c-0.1,0.5-0.2,1.2-0.3,1.8h3.2v9.4h-6.3V727.5z M379.1,730.3v-1.8
			h-4.3v1.8H379.1z M379.1,733.1v-1.9h-4.3v1.9H379.1z M379.1,735.9V734h-4.3v1.9H379.1z M379.9,740.3c-0.5-0.7-1.5-1.6-2.4-2.3
			l0.9-0.5c0.9,0.6,1.9,1.6,2.4,2.3L379.9,740.3z"/>
		<path class="st15" d="M394.2,728.2l0.9,0.5c-0.1,0.1-0.1,0.1-0.2,0.1c-0.9,1.3-2.1,2.4-3.5,3.3c2.1,1,4.5,1.7,7.1,2
			c-0.3,0.3-0.6,0.8-0.8,1.1c-0.9-0.1-1.7-0.3-2.5-0.5v5.4h-1.2v-0.6h-7.5v0.6h-1.2V735c-0.9,0.3-1.9,0.5-2.8,0.7
			c-0.1-0.3-0.4-0.8-0.6-1c2.4-0.5,5-1.3,7.3-2.5c-1-0.7-1.9-1.4-2.6-2.2c-0.8,0.7-1.8,1.3-2.9,1.9c-0.2-0.3-0.5-0.7-0.8-0.8
			c2.5-1.1,4.3-2.7,5.2-4.1l1.5,0.2c0,0.1-0.1,0.2-0.4,0.2c-0.2,0.3-0.4,0.6-0.7,0.9h5.6L394.2,728.2z M383.8,726.7v2.1h-1.2v-3.2
			h6.7v-1.8l1.6,0.1c0,0.1-0.1,0.2-0.4,0.2v1.5h6.9v3.2h-1.2v-2.1H383.8z M394.6,734.7c-1.6-0.4-3.1-1-4.4-1.8
			c-1.2,0.7-2.6,1.3-3.9,1.8H394.6z M386.3,738.6h7.5v-2.8h-7.5V738.6z M387.4,729.2L387.4,729.2c0.7,0.9,1.7,1.7,2.8,2.4
			c1.2-0.7,2.1-1.5,2.9-2.4H387.4z"/>
		<path class="st15" d="M400.3,726.4h11.3l0.1-0.1l1.2,0.9c-0.1,0.1-0.1,0.1-0.2,0.2c-1.4,6.7-4.5,10.1-9.9,12.2
			c-0.2-0.3-0.5-0.8-0.8-1c5.2-1.9,8.1-5.2,9.3-10.9h-10.9V726.4z M413.8,723.2c1.1,0,1.9,0.9,1.9,1.9c0,1.1-0.9,1.9-1.9,1.9
			c-1.1,0-1.9-0.9-1.9-1.9C411.9,724.1,412.8,723.2,413.8,723.2z M415.1,725.2c0-0.8-0.6-1.4-1.3-1.4s-1.4,0.6-1.4,1.4
			c0,0.7,0.6,1.4,1.4,1.4C414.6,726.5,415.1,725.9,415.1,725.2z"/>
		<path class="st15" d="M430.4,726.7v11.7h-1.3v-1.1h-9.8v1.2h-1.2v-11.7H430.4z M429.1,736.1v-8.2h-9.8v8.2H429.1z"/>
		<path class="st15" d="M447.5,726.5c-0.1,0.1-0.1,0.2-0.2,0.2c-1.4,6.7-4.9,10.7-10.7,12.7c-0.2-0.3-0.6-0.8-0.8-1
			c5.5-1.8,8.9-5.7,9.9-11.1h-11.6v-1.2h12l0.2-0.2L447.5,726.5z"/>
		<path class="st15" d="M462,728.7c0,0.1-0.1,0.1-0.2,0.1c-0.8,1.7-2.3,3.6-3.6,4.7c-0.2-0.2-0.6-0.5-0.9-0.6c1.3-0.9,2.6-2.6,3-3.7
			h-10.3v-1h10.8l0.1-0.1L462,728.7z M456.3,731.2c0,0.1-0.1,0.2-0.3,0.2c-0.4,3.2-1.6,6.2-4.5,8.1c-0.2-0.2-0.6-0.5-0.9-0.7
			c2.9-1.9,4-4.4,4.3-7.9L456.3,731.2z"/>
		<path class="st15" d="M477.9,725.4c-0.1,0.1-0.2,0.1-0.3,0.1c-0.1,0-0.1,0-0.2,0c-1.4,1.4-3.3,3-5,4.2c0.1,0.1,0.4,0.2,0.4,0.2
			c0,0.1-0.2,0.2-0.4,0.2v9.5H471v-9.1c-1.9,1.3-4.3,2.8-6.8,4c-0.2-0.3-0.5-0.7-0.7-1c4.8-2.2,10.1-6,13-9.2L477.9,725.4z"/>
		<path class="st15" d="M484.1,727c0,0.2-0.2,0.3-0.4,0.3c-0.1,4.8-0.5,9.1-3.2,12.3c-0.3-0.2-0.7-0.5-1.1-0.7c2.6-2.9,3-7.3,3-12.1
			L484.1,727z M488.7,737.2c3-1.4,4.9-4,5.9-7.1c0.3,0.2,0.8,0.5,1.1,0.7c-1.3,3.6-3.5,6.2-7.2,8c-0.1,0.1-0.2,0.3-0.3,0.4l-0.9-1.2
			l0.2-0.3v-13l1.6,0.1c0,0.2-0.1,0.3-0.4,0.3V737.2z"/>
	</g>
	<g class="st13">
		<path class="st15" d="M543.3,706.8v-12.1h1.6v12.1H543.3z"/>
		<path class="st15" d="M547.7,706.8v-12.1h4.2c0.9,0,1.7,0.1,2.2,0.2c0.7,0.2,1.3,0.4,1.8,0.9c0.6,0.5,1.1,1.2,1.4,2.1
			c0.3,0.8,0.5,1.8,0.5,2.9c0,0.9-0.1,1.7-0.3,2.4c-0.2,0.7-0.5,1.3-0.8,1.8c-0.3,0.5-0.7,0.8-1.1,1.1c-0.4,0.3-0.9,0.5-1.4,0.6
			c-0.6,0.1-1.2,0.2-1.9,0.2H547.7z M549.3,705.4h2.6c0.8,0,1.4-0.1,1.9-0.2c0.5-0.1,0.8-0.4,1.1-0.6c0.4-0.4,0.7-0.9,0.9-1.5
			c0.2-0.6,0.3-1.4,0.3-2.3c0-1.3-0.2-2.2-0.6-2.9c-0.4-0.7-0.9-1.1-1.5-1.4c-0.4-0.2-1.1-0.2-2.1-0.2h-2.5V705.4z"/>
		<path class="st15" d="M576.4,696.4c-0.1,0.1-0.2,0.2-0.3,0.3c-1.8,5.6-4.6,9-9.1,11.3c-0.2-0.3-0.5-0.7-0.9-0.9
			c4.3-2.1,7.1-5.4,8.5-10h-6c-1,1.5-2.2,2.9-3.7,4.1c-0.2-0.2-0.6-0.6-0.9-0.8c2.3-1.7,4.2-4.4,5.4-7.4l1.6,0.4
			c-0.1,0.2-0.3,0.2-0.5,0.2c-0.3,0.8-0.7,1.6-1.1,2.2h5.9l0.2-0.1L576.4,696.4z M574.3,692.5c0.8,0.6,1.7,1.7,2.2,2.4l-0.6,0.5
			c-0.5-0.8-1.4-1.8-2.2-2.4L574.3,692.5z M576.8,692c0.8,0.6,1.7,1.7,2.2,2.4l-0.6,0.5c-0.5-0.8-1.4-1.7-2.2-2.4L576.8,692z"/>
		<path class="st15" d="M593,698.5c0,0.1-0.1,0.1-0.2,0.2c-1.4,5.1-4.2,7.6-9.3,9c-0.2-0.3-0.5-0.7-0.7-1c4.6-1.1,7.5-3.5,8.5-7.4
			h-11.2v-1.1h11.7l0.2-0.1L593,698.5z M591.4,694.9h-9.6v-1.1h9.6V694.9z"/>
		<path class="st15" d="M608.3,695.2c-0.1,0.1-0.1,0.2-0.2,0.2c-1.3,6.4-4.6,10.2-10.2,12.2c-0.2-0.3-0.6-0.7-0.8-1
			c5.2-1.7,8.5-5.5,9.5-10.6h-11.1v-1.1h11.5l0.2-0.2L608.3,695.2z"/>
	</g>
	<g class="st13">
		<path class="st15" d="M557.2,741.2c-0.1,0.1-0.2,0.2-0.3,0.2c-0.8,1.8-2.1,4.1-3.5,5.5c-0.3-0.2-0.7-0.4-1-0.6
			c1.3-1.2,2.3-2.8,2.9-4.2l-6.5,1.7v4.4c0,1.7,1,2.2,2.4,2.2h2.8c0.7,0,1.9-0.1,2.5-0.2c0,0.4,0,0.8,0,1.2
			c-0.7,0.1-1.9,0.1-2.5,0.1h-2.8c-2.1,0-3.6-1-3.6-3.3v-4.1l-4.3,1.1l-0.3-1.1l4.5-1.1v-5.1l1.6,0.1c0,0.2-0.2,0.3-0.4,0.3v4.4
			l7.2-1.8l0.2-0.1L557.2,741.2z"/>
		<path class="st15" d="M571.6,740.7c-0.1,0.1-0.2,0.2-0.3,0.3c-1.8,5.6-4.6,9-9.1,11.3c-0.2-0.3-0.5-0.7-0.9-0.9
			c4.3-2.1,7.1-5.4,8.5-10h-6c-1,1.5-2.2,2.9-3.7,4.1c-0.2-0.2-0.6-0.6-0.9-0.8c2.3-1.7,4.2-4.4,5.4-7.4l1.6,0.4
			c-0.1,0.2-0.3,0.2-0.5,0.2c-0.3,0.8-0.7,1.6-1.1,2.2h5.9l0.2-0.1L571.6,740.7z M569.5,736.8c0.8,0.6,1.7,1.7,2.2,2.4l-0.6,0.5
			c-0.5-0.8-1.4-1.8-2.2-2.4L569.5,736.8z M572,736.3c0.8,0.6,1.7,1.7,2.2,2.4l-0.6,0.5c-0.5-0.8-1.4-1.7-2.2-2.4L572,736.3z"/>
		<path class="st15" d="M578.1,741c1.6,0.7,3.3,1.5,4.8,2.4c1.1-1.6,2.2-3.8,3-5.9l1.7,0.7c-0.1,0.2-0.3,0.2-0.6,0.2
			c-0.8,1.8-1.9,3.9-3,5.6c1.3,0.8,2.7,1.7,3.7,2.6l-0.8,1.1c-0.9-0.8-2.2-1.7-3.6-2.6c-1.7,2.5-4.3,5-7.2,6.9
			c-0.2-0.3-0.7-0.7-1-0.8c2.8-1.8,5.4-4.3,7.1-6.7c-1.5-0.9-3.2-1.8-4.8-2.5L578.1,741z"/>
		<path class="st15" d="M591.6,738.7c1.8,0.6,3.8,1.4,5,2.3l-0.6,1.1c-1.2-0.9-3.2-1.8-4.9-2.3L591.6,738.7z M591.6,750.4
			c6-1.9,10-5.2,12-9.9c0.4,0.3,0.7,0.5,1.1,0.7c-2.1,4.6-6.2,8.2-12,10.1c0,0.2-0.1,0.3-0.2,0.4L591.6,750.4z"/>
		<path class="st15" d="M616.4,746.3c-1.7-0.9-4.1-2-5.9-2.8v8.5h-1.3v-14.7l1.7,0.1c0,0.2-0.2,0.3-0.4,0.4v4.9l0.3-0.4
			c2,0.7,4.6,1.9,6.4,2.8L616.4,746.3z"/>
		<path class="st15" d="M622.2,752.6v-9.8c-0.7,1.1-1.5,2.1-2.3,2.9c-0.1-0.3-0.4-0.8-0.6-1.1c1.8-1.8,3.6-4.7,4.6-7.7l1.4,0.5
			c-0.1,0.2-0.2,0.2-0.4,0.2c-0.5,1.2-1.1,2.4-1.7,3.6l0.5,0.1c0,0.1-0.1,0.2-0.3,0.2v11H622.2z M628.3,750.1c0,0.9,0.2,1.2,1.2,1.2
			h3.5c1,0,1.1-0.6,1.2-3.2c0.3,0.2,0.7,0.4,1.1,0.5c-0.2,2.8-0.5,3.7-2.3,3.7h-3.7c-1.7,0-2.2-0.5-2.2-2.3v-12.8l1.5,0.1
			c0,0.1-0.1,0.2-0.3,0.2v6.3c2-1.1,4.1-2.5,5.3-3.7l0.9,1.1c-0.1,0.1-0.2,0.1-0.3,0.1c-1.4,1.2-3.8,2.6-5.9,3.7V750.1z"/>
	</g>
	<g class="st13">
		<path class="st15" d="M913.2,482.4v-8.6l1.7,0.1c0,0.2-0.1,0.3-0.4,0.3v8.2H913.2z M923,473.1c0,0.2-0.1,0.3-0.4,0.3v5.6
			c0,3.7-1.3,7.1-6.4,9.1c-0.2-0.3-0.6-0.7-0.9-1c4.9-1.8,6-4.9,6-8.1v-6L923,473.1z"/>
		<path class="st15" d="M940.9,474.2c0,0.1-0.1,0.1-0.2,0.2c-1,2.3-2.5,4.2-4.2,5.7c-0.3-0.2-0.8-0.5-1.1-0.7
			c1.6-1.2,2.9-2.9,3.5-4.4h-12.7v-1.2h13.4l0.2-0.1L940.9,474.2z M933.9,477.5c0,0.1-0.2,0.3-0.4,0.3c-0.5,4.2-1.9,8.2-5.6,10.3
			c-0.2-0.2-0.7-0.6-1-0.8c3.6-2,4.9-5.7,5.3-10L933.9,477.5z"/>
		<path class="st15" d="M946.2,475.4c0,0.2-0.2,0.3-0.4,0.3c-0.1,4.8-0.5,9.1-3.2,12.3c-0.3-0.2-0.7-0.5-1.1-0.7
			c2.6-2.9,3-7.3,3-12.1L946.2,475.4z M950.8,485.6c3-1.4,4.9-4,5.9-7.1c0.3,0.2,0.8,0.5,1.1,0.7c-1.3,3.6-3.5,6.2-7.2,8
			c-0.1,0.1-0.2,0.3-0.3,0.4l-0.9-1.2l0.2-0.3v-13l1.6,0.1c0,0.2-0.1,0.3-0.4,0.3V485.6z"/>
		<path class="st15" d="M972.2,475.6c0,0.1-0.1,0.2-0.2,0.2c-0.7,2.2-1.5,4.2-2.6,5.9c0.8,0.4,1.6,1,2.3,1.5l-0.7,1.2
			c-0.6-0.5-1.5-1.1-2.3-1.5c-1.6,2.3-3.7,4.1-6.4,5.4c-0.2-0.3-0.7-0.7-1-0.9c2.6-1.2,4.7-3,6.3-5.1c-1.3-0.7-2.6-1.3-3.9-1.8
			l0.7-1c1.3,0.5,2.6,1.1,4,1.8c0.9-1.5,1.6-3,2.1-4.7h-6c-1.1,1.8-2.5,3.6-4.1,4.9c-0.2-0.2-0.7-0.6-1-0.8c2.3-1.8,4.5-5,5.6-8
			l1.7,0.4c-0.1,0.2-0.2,0.2-0.5,0.2c-0.2,0.6-0.7,1.5-1,2.1h5.9l0.2-0.1L972.2,475.6z"/>
		<path class="st15" d="M989.5,473.8c-0.1,0.1-0.2,0.1-0.3,0.1c-0.1,0-0.1,0-0.2,0c-1.4,1.4-3.3,3-5,4.2c0.1,0.1,0.4,0.2,0.4,0.2
			c0,0.1-0.2,0.2-0.4,0.2v9.5h-1.3v-9.1c-1.9,1.3-4.3,2.8-6.8,4c-0.2-0.3-0.5-0.7-0.7-1c4.8-2.2,10.1-6,13-9.2L989.5,473.8z"/>
		<path class="st15" d="M1005.3,487.6c-0.3-0.6-0.6-1.2-0.9-1.9c-3.7,0.4-9.7,0.8-12.5,0.9c-0.1,0.2-0.2,0.3-0.3,0.4l-0.5-1.6
			c0.5,0,1.2,0,1.9-0.1c1.2-3.4,2.9-8.7,3.8-12.2l1.7,0.5c-0.1,0.2-0.2,0.2-0.5,0.2c-1,3.3-2.5,8-3.7,11.5c2.9-0.1,7.1-0.4,9.5-0.6
			c-0.9-1.5-2.1-3.1-3.2-4.3l1.1-0.6c1.9,2,4,5.4,4.9,7.3L1005.3,487.6z"/>
		<path class="st15" d="M1017.1,475.4c-0.1,0.2-0.2,0.3-0.4,0.3c-0.6,5.5-2.5,10.3-5.4,10.3c-1.5,0-2.8-1.5-2.8-4.3
			c0-4.3,3.3-7.8,8-7.8c5.1,0,7.3,3.2,7.3,6.7c0,4.2-2.4,6.3-6.7,7.2c-0.2-0.3-0.5-0.8-0.7-1.1c4.1-0.8,6.2-2.8,6.2-6.1
			c0-2.9-1.9-5.6-6-5.6c-0.2,0-0.4,0-0.5,0L1017.1,475.4z M1015.4,475.1c-3.6,0.4-5.8,3.4-5.8,6.5c0,1.9,0.8,3.1,1.7,3.1
			C1013.5,484.7,1015,480,1015.4,475.1z"/>
		<path class="st15" d="M1041,476.7c-0.1,0.1-0.2,0.2-0.3,0.2c-0.8,1.9-2.2,4.3-3.7,5.8c-0.3-0.2-0.7-0.5-1.1-0.6
			c1.3-1.2,2.4-3,3-4.4l-6.8,1.8v4.6c0,1.7,1,2.3,2.5,2.3h2.9c0.7,0,1.9-0.1,2.6-0.2c0,0.4,0,0.9,0,1.2c-0.7,0.1-1.9,0.1-2.6,0.1h-3
			c-2.2,0-3.7-1-3.7-3.5v-4.3l-4.5,1.2l-0.3-1.2l4.8-1.2v-5.4l1.7,0.1c0,0.2-0.2,0.3-0.4,0.4v4.6l7.5-1.9l0.2-0.1L1041,476.7z"/>
		<path class="st15" d="M1056.1,476.1c-0.1,0.1-0.2,0.2-0.3,0.3c-1.9,5.9-4.8,9.4-9.6,11.9c-0.2-0.3-0.5-0.7-0.9-1
			c4.6-2.2,7.4-5.6,8.9-10.4h-6.3c-1,1.6-2.3,3.1-3.9,4.3c-0.2-0.2-0.7-0.6-1-0.8c2.4-1.8,4.4-4.6,5.6-7.8l1.7,0.5
			c-0.1,0.2-0.3,0.2-0.5,0.2c-0.4,0.8-0.8,1.6-1.2,2.4h6.2l0.2-0.1L1056.1,476.1z M1053.9,472.1c0.8,0.7,1.8,1.8,2.3,2.5l-0.7,0.6
			c-0.5-0.8-1.5-1.9-2.3-2.5L1053.9,472.1z M1056.4,471.6c0.8,0.7,1.8,1.7,2.3,2.5l-0.7,0.5c-0.5-0.8-1.5-1.8-2.3-2.5L1056.4,471.6z
			"/>
		<path class="st15" d="M1062.8,476.4c1.7,0.7,3.4,1.6,5,2.6c1.1-1.7,2.3-3.9,3.2-6.2l1.7,0.7c-0.1,0.2-0.3,0.2-0.6,0.2
			c-0.8,1.9-2,4.1-3.2,5.9c1.4,0.8,2.8,1.8,3.9,2.7l-0.9,1.1c-1-0.9-2.3-1.8-3.8-2.8c-1.8,2.6-4.5,5.2-7.5,7.2
			c-0.2-0.3-0.7-0.7-1-0.9c3-1.9,5.7-4.6,7.4-7c-1.6-1-3.3-1.9-5-2.6L1062.8,476.4z"/>
		<path class="st15" d="M1077,474.1c1.8,0.6,4,1.5,5.3,2.4l-0.7,1.1c-1.3-0.9-3.4-1.8-5.2-2.5L1077,474.1z M1076.9,486.3
			c6.3-1.9,10.5-5.5,12.6-10.4c0.4,0.3,0.8,0.5,1.2,0.7c-2.2,4.9-6.5,8.6-12.5,10.6c0,0.2-0.1,0.3-0.2,0.4L1076.9,486.3z"/>
		<path class="st15" d="M1103,482c-1.8-1-4.3-2.1-6.2-2.9v8.9h-1.3v-15.4l1.8,0.1c0,0.2-0.2,0.3-0.5,0.4v5.2l0.3-0.4
			c2.1,0.8,4.8,2,6.7,3L1103,482z"/>
		<path class="st15" d="M1109,488.6v-10.2c-0.8,1.2-1.6,2.2-2.4,3.1c-0.1-0.3-0.5-0.9-0.7-1.1c1.8-1.8,3.7-4.9,4.9-8l1.5,0.5
			c-0.1,0.2-0.2,0.2-0.4,0.2c-0.5,1.3-1.1,2.5-1.8,3.7l0.5,0.1c0,0.1-0.1,0.2-0.4,0.2v11.6H1109z M1115.4,485.9c0,1,0.2,1.2,1.2,1.2
			h3.7c1,0,1.2-0.7,1.3-3.3c0.3,0.2,0.8,0.5,1.1,0.5c-0.2,2.9-0.5,3.9-2.4,3.9h-3.8c-1.8,0-2.4-0.5-2.4-2.4v-13.4l1.5,0.1
			c0,0.1-0.1,0.2-0.4,0.2v6.6c2.1-1.2,4.3-2.6,5.6-3.9l1,1.1c-0.1,0.1-0.2,0.1-0.3,0.1c-1.5,1.3-3.9,2.7-6.2,3.9V485.9z"/>
	</g>
	<g class="st13">
		<path class="st16" d="M685.2,438.3v-13.3h9.6v1.6h-7.8v4.1h7.3v1.6h-7.3v4.5h8.1v1.6H685.2z"/>
		<path class="st16" d="M703.5,438.3v-1.2c-0.6,1-1.5,1.4-2.7,1.4c-0.8,0-1.5-0.2-2.1-0.6c-0.6-0.4-1.1-1-1.5-1.8
			c-0.4-0.8-0.5-1.6-0.5-2.6c0-1,0.2-1.8,0.5-2.6c0.3-0.8,0.8-1.4,1.4-1.8c0.6-0.4,1.4-0.6,2.1-0.6c0.6,0,1.1,0.1,1.5,0.4
			c0.5,0.2,0.8,0.6,1.1,1v-4.8h1.6v13.3H703.5z M698.4,433.5c0,1.2,0.3,2.2,0.8,2.8c0.5,0.6,1.1,0.9,1.8,0.9c0.7,0,1.3-0.3,1.8-0.9
			s0.7-1.5,0.7-2.7c0-1.3-0.3-2.3-0.8-2.9c-0.5-0.6-1.1-0.9-1.9-0.9c-0.7,0-1.3,0.3-1.8,0.9C698.6,431.3,698.4,432.3,698.4,433.5z"
			/>
		<path class="st16" d="M707.3,439.1l1.6,0.2c0.1,0.5,0.2,0.8,0.6,1.1c0.4,0.3,1,0.5,1.7,0.5c0.8,0,1.3-0.2,1.7-0.5
			c0.4-0.3,0.7-0.7,0.8-1.3c0.1-0.3,0.1-1,0.1-2.1c-0.7,0.8-1.6,1.3-2.7,1.3c-1.3,0-2.3-0.5-3.1-1.4c-0.7-1-1.1-2.1-1.1-3.4
			c0-0.9,0.2-1.8,0.5-2.5s0.8-1.4,1.4-1.8c0.6-0.4,1.4-0.6,2.2-0.6c1.1,0,2.1,0.5,2.8,1.4v-1.2h1.5v8.3c0,1.5-0.2,2.6-0.5,3.2
			c-0.3,0.6-0.8,1.1-1.4,1.5s-1.5,0.5-2.4,0.5c-1.1,0-2.1-0.3-2.8-0.8C707.6,440.9,707.3,440.2,707.3,439.1z M708.6,433.4
			c0,1.3,0.2,2.2,0.8,2.8s1.1,0.9,1.9,0.9c0.7,0,1.4-0.3,1.9-0.9c0.5-0.6,0.8-1.5,0.8-2.7c0-1.2-0.3-2.1-0.8-2.7s-1.2-0.9-1.9-0.9
			c-0.7,0-1.3,0.3-1.8,0.9C708.9,431.3,708.6,432.2,708.6,433.4z"/>
		<path class="st16" d="M724.5,435.2l1.7,0.2c-0.3,1-0.8,1.7-1.5,2.3c-0.7,0.5-1.6,0.8-2.8,0.8c-1.4,0-2.5-0.4-3.3-1.3
			c-0.8-0.9-1.2-2.1-1.2-3.6c0-1.6,0.4-2.9,1.2-3.8c0.8-0.9,1.9-1.3,3.2-1.3c1.3,0,2.3,0.4,3.2,1.3c0.8,0.9,1.2,2.1,1.2,3.7
			c0,0.1,0,0.2,0,0.4H719c0.1,1.1,0.4,1.9,0.9,2.4c0.5,0.6,1.2,0.8,2,0.8c0.6,0,1.1-0.2,1.5-0.5
			C723.9,436.4,724.2,435.9,724.5,435.2z M719.1,432.6h5.4c-0.1-0.8-0.3-1.4-0.6-1.8c-0.5-0.6-1.2-0.9-2-0.9c-0.7,0-1.4,0.2-1.9,0.8
			S719.2,431.8,719.1,432.6z"/>
		<path class="st16" d="M746.8,427.5c-0.1,0.1-0.2,0.1-0.3,0.2c-1.2,1.5-2.8,3.1-4.5,4.4l0.3,0.1c0,0.1-0.2,0.2-0.4,0.3v7.1h-1.3
			v-6.4c-1.9,1.3-4.3,2.6-6.6,3.5c-0.1-0.1-0.7-0.9-0.9-1c4.5-1.7,8.8-4.4,11.3-7.4H735V427h10.6l0.2-0.1L746.8,427.5z M743.7,426.1
			c-1.6-0.9-4.1-1.7-6.1-2.2l0.6-1.1c2,0.5,4.5,1.4,6.2,2.2L743.7,426.1z M743.8,432.1c1.9,1,4.1,2.4,5.4,3.4l-0.9,1
			c-1.2-1-3.5-2.5-5.3-3.5L743.8,432.1z"/>
		<path class="st16" d="M753,428.2c0.6,1.1,1.2,2.9,1.4,4l-1,0.3c-0.2-1.1-0.8-2.8-1.4-3.9L753,428.2z M764.1,428.3
			c0,0.2-0.2,0.2-0.4,0.2c-1.4,5.4-4.2,8.7-8.7,10.5c-0.1-0.2-0.5-0.6-0.7-0.9c4.4-1.7,7-4.8,8.3-10.3L764.1,428.3z M757.5,427.3
			c0.4,1.2,0.7,3,0.9,4.2l-1.1,0.2c-0.1-1.2-0.5-2.9-0.9-4.2L757.5,427.3z"/>
		<path class="st16" d="M777.6,433.1c-1.9-1-4.5-2.2-6.5-3v9.3h-1.4v-16.1l1.9,0.1c0,0.2-0.2,0.3-0.5,0.4v5.4l0.3-0.4
			c2.2,0.8,5,2.1,7,3.1L777.6,433.1z"/>
		<path class="st16" d="M795.8,425.3c-0.1,0.1-0.1,0.1-0.2,0.2c-0.7,7.2-3.2,11.1-9.4,13.6c-0.2-0.3-0.6-0.7-0.9-1
			c5.9-2.4,8.2-5.9,8.8-12h-10.6v5.1h-1.3v-6.4h12.3l0.2-0.1L795.8,425.3z"/>
		<path class="st16" d="M798.6,430.3h15.5v1.3h-14.8c-0.1,0.2-0.4,0.3-0.6,0.4L798.6,430.3z"/>
		<path class="st16" d="M830,426.7c-0.1,0.1-0.2,0.2-0.3,0.3c-1.9,6-5,9.9-10.1,12.5c-0.2-0.3-0.6-0.7-0.9-1c4.9-2.4,7.9-6.1,9.4-11
			h-6.6c-1.1,1.7-2.5,3.3-4.2,4.6c-0.3-0.3-0.7-0.6-1.1-0.9c2.5-1.9,4.7-4.8,5.9-8l1.8,0.5c-0.1,0.2-0.3,0.2-0.5,0.2
			c-0.4,0.8-0.8,1.6-1.2,2.3h6.5l0.2-0.1L830,426.7z"/>
	</g>
	<g class="st13">
		<path class="st16" d="M370.8,661.7v-13.3h5.9c1.2,0,2.1,0.1,2.7,0.4c0.6,0.2,1.1,0.7,1.5,1.3s0.6,1.3,0.6,2c0,0.9-0.3,1.7-0.9,2.4
			c-0.6,0.6-1.6,1.1-2.8,1.2c0.5,0.2,0.8,0.4,1.1,0.7c0.5,0.5,1,1.1,1.5,1.8l2.3,3.6h-2.2l-1.8-2.8c-0.5-0.8-0.9-1.4-1.3-1.8
			c-0.3-0.4-0.6-0.7-0.9-0.9c-0.3-0.2-0.5-0.3-0.8-0.4c-0.2,0-0.5-0.1-1-0.1h-2v5.9H370.8z M372.6,654.2h3.8c0.8,0,1.4-0.1,1.9-0.2
			s0.8-0.4,1-0.8s0.4-0.8,0.4-1.2c0-0.6-0.2-1.1-0.7-1.5s-1.2-0.6-2.2-0.6h-4.2V654.2z"/>
		<path class="st16" d="M390.5,658.6l1.7,0.2c-0.3,1-0.8,1.7-1.5,2.3s-1.6,0.8-2.8,0.8c-1.4,0-2.5-0.4-3.3-1.3
			c-0.8-0.9-1.2-2.1-1.2-3.6c0-1.6,0.4-2.9,1.2-3.8c0.8-0.9,1.9-1.3,3.2-1.3c1.3,0,2.3,0.4,3.2,1.3c0.8,0.9,1.2,2.1,1.2,3.7
			c0,0.1,0,0.2,0,0.4h-7.2c0.1,1.1,0.4,1.9,0.9,2.4c0.5,0.6,1.2,0.8,2,0.8c0.6,0,1.1-0.2,1.5-0.5C390,659.7,390.3,659.2,390.5,658.6
			z M385.2,655.9h5.4c-0.1-0.8-0.3-1.4-0.6-1.8c-0.5-0.6-1.2-0.9-2-0.9c-0.7,0-1.4,0.2-1.9,0.8C385.5,654.4,385.2,655.1,385.2,655.9
			z"/>
		<path class="st16" d="M400.5,660.5c-0.6,0.5-1.2,0.9-1.7,1.1s-1.2,0.3-1.8,0.3c-1.1,0-1.9-0.3-2.4-0.8c-0.6-0.5-0.9-1.2-0.9-2
			c0-0.5,0.1-0.9,0.3-1.3c0.2-0.4,0.5-0.7,0.8-0.9s0.7-0.4,1.2-0.5c0.3-0.1,0.8-0.2,1.4-0.2c1.3-0.2,2.3-0.3,2.9-0.6
			c0-0.2,0-0.4,0-0.4c0-0.7-0.2-1.1-0.5-1.4c-0.4-0.4-1-0.6-1.9-0.6c-0.8,0-1.3,0.1-1.7,0.4s-0.6,0.7-0.8,1.4l-1.6-0.2
			c0.1-0.7,0.4-1.2,0.7-1.7c0.3-0.4,0.8-0.7,1.4-1c0.6-0.2,1.4-0.3,2.2-0.3c0.8,0,1.5,0.1,2,0.3c0.5,0.2,0.9,0.4,1.1,0.7
			c0.2,0.3,0.4,0.7,0.5,1.1c0.1,0.3,0.1,0.8,0.1,1.5v2.2c0,1.5,0,2.5,0.1,2.9c0.1,0.4,0.2,0.8,0.4,1.2h-1.7
			C400.7,661.3,400.6,660.9,400.5,660.5z M400.4,656.8c-0.6,0.2-1.5,0.4-2.7,0.6c-0.7,0.1-1.1,0.2-1.4,0.3c-0.3,0.1-0.5,0.3-0.6,0.5
			c-0.2,0.2-0.2,0.5-0.2,0.8c0,0.4,0.2,0.8,0.5,1.1c0.3,0.3,0.8,0.4,1.4,0.4c0.6,0,1.2-0.1,1.7-0.4c0.5-0.3,0.8-0.7,1.1-1.1
			c0.2-0.4,0.3-0.9,0.3-1.6V656.8z"/>
		<path class="st16" d="M404.5,661.7v-13.3h1.6v13.3H404.5z"/>
		<path class="st16" d="M408.1,657.7V656h5v1.6H408.1z"/>
		<path class="st16" d="M418.4,660.2l0.2,1.4c-0.5,0.1-0.9,0.1-1.2,0.1c-0.6,0-1.1-0.1-1.4-0.3c-0.3-0.2-0.6-0.4-0.7-0.7
			c-0.1-0.3-0.2-0.9-0.2-1.9v-5.5H414V652h1.2v-2.4l1.6-1v3.4h1.6v1.3h-1.6v5.6c0,0.5,0,0.8,0.1,0.9c0.1,0.1,0.2,0.2,0.3,0.3
			s0.3,0.1,0.6,0.1C417.9,660.3,418.1,660.2,418.4,660.2z"/>
		<path class="st16" d="M420,650.3v-1.9h1.6v1.9H420z M420,661.7V652h1.6v9.6H420z"/>
		<path class="st16" d="M424.1,661.7V652h1.5v1.3c0.3-0.5,0.7-0.8,1.2-1.1c0.5-0.3,1.1-0.4,1.7-0.4c0.7,0,1.3,0.1,1.8,0.4
			s0.8,0.7,1,1.2c0.8-1.1,1.8-1.7,3-1.7c1,0,1.7,0.3,2.2,0.8c0.5,0.5,0.8,1.3,0.8,2.4v6.6h-1.6v-6.1c0-0.7-0.1-1.1-0.2-1.4
			c-0.1-0.3-0.3-0.5-0.6-0.7c-0.3-0.2-0.6-0.3-1-0.3c-0.7,0-1.2,0.2-1.7,0.7c-0.4,0.4-0.7,1.2-0.7,2.2v5.6h-1.6v-6.2
			c0-0.7-0.1-1.3-0.4-1.6s-0.7-0.5-1.3-0.5c-0.5,0-0.9,0.1-1.3,0.4s-0.7,0.6-0.8,1.1c-0.2,0.5-0.3,1.1-0.3,2v5H424.1z"/>
		<path class="st16" d="M446.2,658.6l1.7,0.2c-0.3,1-0.8,1.7-1.5,2.3s-1.6,0.8-2.8,0.8c-1.4,0-2.5-0.4-3.3-1.3
			c-0.8-0.9-1.2-2.1-1.2-3.6c0-1.6,0.4-2.9,1.2-3.8c0.8-0.9,1.9-1.3,3.2-1.3c1.3,0,2.3,0.4,3.2,1.3c0.8,0.9,1.2,2.1,1.2,3.7
			c0,0.1,0,0.2,0,0.4h-7.2c0.1,1.1,0.4,1.9,0.9,2.4c0.5,0.6,1.2,0.8,2,0.8c0.6,0,1.1-0.2,1.5-0.5
			C445.6,659.7,445.9,659.2,446.2,658.6z M440.8,655.9h5.4c-0.1-0.8-0.3-1.4-0.6-1.8c-0.5-0.6-1.2-0.9-2-0.9c-0.7,0-1.4,0.2-1.9,0.8
			C441.2,654.4,440.9,655.1,440.8,655.9z"/>
		<path class="st16" d="M464.7,657l1.8,0.4c-0.4,1.4-1,2.5-2,3.3c-1,0.8-2.1,1.1-3.5,1.1c-1.4,0-2.6-0.3-3.5-0.9
			c-0.9-0.6-1.6-1.4-2-2.5s-0.7-2.3-0.7-3.6c0-1.4,0.3-2.6,0.8-3.6c0.5-1,1.3-1.8,2.3-2.3s2-0.8,3.2-0.8c1.3,0,2.4,0.3,3.3,1
			s1.5,1.6,1.9,2.9l-1.7,0.4c-0.3-1-0.8-1.7-1.3-2.1s-1.3-0.7-2.2-0.7c-1,0-1.9,0.2-2.6,0.7c-0.7,0.5-1.2,1.1-1.4,2
			c-0.3,0.8-0.4,1.7-0.4,2.5c0,1.1,0.2,2.1,0.5,3c0.3,0.8,0.8,1.5,1.5,1.9c0.7,0.4,1.4,0.6,2.3,0.6c1,0,1.8-0.3,2.5-0.9
			C464,659,464.5,658.1,464.7,657z"/>
		<path class="st16" d="M474.7,661.7v-1.4c-0.7,1.1-1.8,1.6-3.1,1.6c-0.6,0-1.1-0.1-1.6-0.3c-0.5-0.2-0.9-0.5-1.1-0.8
			c-0.2-0.3-0.4-0.7-0.5-1.2c-0.1-0.3-0.1-0.8-0.1-1.5v-6h1.6v5.3c0,0.9,0,1.4,0.1,1.7c0.1,0.4,0.3,0.8,0.7,1
			c0.3,0.2,0.7,0.4,1.2,0.4s0.9-0.1,1.4-0.4c0.4-0.2,0.7-0.6,0.9-1c0.2-0.4,0.3-1.1,0.3-1.9V652h1.6v9.6H474.7z"/>
		<path class="st16" d="M478.1,658.8l1.6-0.3c0.1,0.6,0.3,1.1,0.8,1.5s1,0.5,1.7,0.5c0.7,0,1.3-0.2,1.7-0.5c0.4-0.3,0.5-0.7,0.5-1.1
			c0-0.4-0.2-0.7-0.5-0.9c-0.2-0.1-0.8-0.3-1.7-0.6c-1.2-0.3-2-0.6-2.5-0.8c-0.5-0.2-0.8-0.5-1-0.9c-0.2-0.4-0.4-0.8-0.4-1.3
			c0-0.4,0.1-0.8,0.3-1.2c0.2-0.4,0.5-0.7,0.8-0.9c0.3-0.2,0.6-0.3,1-0.5s0.9-0.2,1.4-0.2c0.8,0,1.4,0.1,2,0.3
			c0.6,0.2,1,0.5,1.3,0.9s0.5,0.9,0.6,1.5l-1.6,0.2c-0.1-0.5-0.3-0.9-0.6-1.2s-0.8-0.4-1.5-0.4c-0.7,0-1.3,0.1-1.6,0.4
			c-0.3,0.2-0.5,0.5-0.5,0.9c0,0.2,0.1,0.4,0.2,0.6c0.1,0.2,0.3,0.3,0.6,0.4c0.2,0.1,0.6,0.2,1.4,0.4c1.2,0.3,2,0.6,2.4,0.8
			s0.8,0.5,1.1,0.9s0.4,0.8,0.4,1.4c0,0.5-0.2,1.1-0.5,1.5s-0.8,0.9-1.4,1.1c-0.6,0.3-1.3,0.4-2,0.4c-1.2,0-2.2-0.3-2.9-0.8
			C478.7,660.6,478.3,659.8,478.1,658.8z"/>
		<path class="st16" d="M491.6,660.2l0.2,1.4c-0.5,0.1-0.9,0.1-1.2,0.1c-0.6,0-1.1-0.1-1.4-0.3c-0.3-0.2-0.6-0.4-0.7-0.7
			c-0.1-0.3-0.2-0.9-0.2-1.9v-5.5h-1.2V652h1.2v-2.4l1.6-1v3.4h1.6v1.3h-1.6v5.6c0,0.5,0,0.8,0.1,0.9c0.1,0.1,0.2,0.2,0.3,0.3
			s0.3,0.1,0.6,0.1C491,660.3,491.3,660.2,491.6,660.2z"/>
		<path class="st16" d="M492.6,656.8c0-1.8,0.5-3.1,1.5-4c0.8-0.7,1.8-1.1,3-1.1c1.3,0,2.4,0.4,3.2,1.3s1.3,2.1,1.3,3.6
			c0,1.2-0.2,2.2-0.6,2.9s-0.9,1.3-1.6,1.7s-1.5,0.6-2.3,0.6c-1.3,0-2.4-0.4-3.3-1.3C493,659.7,492.6,658.5,492.6,656.8z
			 M494.2,656.8c0,1.2,0.3,2.2,0.8,2.8c0.5,0.6,1.2,0.9,2,0.9c0.8,0,1.5-0.3,2-0.9s0.8-1.6,0.8-2.8c0-1.2-0.3-2.1-0.8-2.7
			c-0.5-0.6-1.2-0.9-2-0.9c-0.8,0-1.5,0.3-2,0.9C494.5,654.7,494.2,655.6,494.2,656.8z"/>
		<path class="st16" d="M503.5,661.7V652h1.5v1.3c0.3-0.5,0.7-0.8,1.2-1.1c0.5-0.3,1.1-0.4,1.7-0.4c0.7,0,1.3,0.1,1.8,0.4
			s0.8,0.7,1,1.2c0.8-1.1,1.8-1.7,3-1.7c1,0,1.7,0.3,2.2,0.8c0.5,0.5,0.8,1.3,0.8,2.4v6.6h-1.6v-6.1c0-0.7-0.1-1.1-0.2-1.4
			c-0.1-0.3-0.3-0.5-0.6-0.7c-0.3-0.2-0.6-0.3-1-0.3c-0.7,0-1.2,0.2-1.7,0.7c-0.4,0.4-0.7,1.2-0.7,2.2v5.6h-1.6v-6.2
			c0-0.7-0.1-1.3-0.4-1.6s-0.7-0.5-1.3-0.5c-0.5,0-0.9,0.1-1.3,0.4s-0.7,0.6-0.8,1.1c-0.2,0.5-0.3,1.1-0.3,2v5H503.5z"/>
		<path class="st16" d="M525.5,658.6l1.7,0.2c-0.3,1-0.8,1.7-1.5,2.3s-1.6,0.8-2.8,0.8c-1.4,0-2.5-0.4-3.3-1.3
			c-0.8-0.9-1.2-2.1-1.2-3.6c0-1.6,0.4-2.9,1.2-3.8c0.8-0.9,1.9-1.3,3.2-1.3c1.3,0,2.3,0.4,3.2,1.3c0.8,0.9,1.2,2.1,1.2,3.7
			c0,0.1,0,0.2,0,0.4h-7.2c0.1,1.1,0.4,1.9,0.9,2.4c0.5,0.6,1.2,0.8,2,0.8c0.6,0,1.1-0.2,1.5-0.5
			C524.9,659.7,525.3,659.2,525.5,658.6z M520.2,655.9h5.4c-0.1-0.8-0.3-1.4-0.6-1.8c-0.5-0.6-1.2-0.9-2-0.9c-0.7,0-1.4,0.2-1.9,0.8
			C520.5,654.4,520.2,655.1,520.2,655.9z"/>
		<path class="st16" d="M529.2,661.7V652h1.5v1.5c0.4-0.7,0.7-1.1,1-1.3c0.3-0.2,0.7-0.3,1-0.3c0.5,0,1.1,0.2,1.7,0.5l-0.6,1.5
			c-0.4-0.2-0.8-0.4-1.2-0.4c-0.4,0-0.7,0.1-1,0.3c-0.3,0.2-0.5,0.5-0.6,0.9c-0.2,0.6-0.3,1.2-0.3,1.9v5H529.2z"/>
		<path class="st16" d="M540.8,661.7v-13.3h4.6c1,0,1.8,0.1,2.4,0.2c0.8,0.2,1.4,0.5,1.9,1c0.7,0.6,1.2,1.3,1.6,2.3
			c0.3,0.9,0.5,2,0.5,3.2c0,1-0.1,1.9-0.4,2.7s-0.5,1.4-0.9,1.9s-0.8,0.9-1.2,1.2c-0.4,0.3-1,0.5-1.6,0.7c-0.6,0.2-1.3,0.2-2.1,0.2
			H540.8z M542.5,660.1h2.8c0.9,0,1.6-0.1,2.1-0.2s0.9-0.4,1.2-0.7c0.4-0.4,0.7-1,1-1.7s0.3-1.6,0.3-2.6c0-1.4-0.2-2.5-0.7-3.2
			c-0.5-0.7-1-1.2-1.7-1.5c-0.5-0.2-1.2-0.3-2.3-0.3h-2.8V660.1z"/>
		<path class="st16" d="M560.2,660.5c-0.6,0.5-1.2,0.9-1.7,1.1s-1.2,0.3-1.8,0.3c-1.1,0-1.9-0.3-2.4-0.8c-0.6-0.5-0.9-1.2-0.9-2
			c0-0.5,0.1-0.9,0.3-1.3c0.2-0.4,0.5-0.7,0.8-0.9s0.7-0.4,1.2-0.5c0.3-0.1,0.8-0.2,1.4-0.2c1.3-0.2,2.3-0.3,2.9-0.6
			c0-0.2,0-0.4,0-0.4c0-0.7-0.2-1.1-0.5-1.4c-0.4-0.4-1-0.6-1.9-0.6c-0.8,0-1.3,0.1-1.7,0.4s-0.6,0.7-0.8,1.4l-1.6-0.2
			c0.1-0.7,0.4-1.2,0.7-1.7c0.3-0.4,0.8-0.7,1.4-1c0.6-0.2,1.4-0.3,2.2-0.3c0.8,0,1.5,0.1,2,0.3c0.5,0.2,0.9,0.4,1.1,0.7
			c0.2,0.3,0.4,0.7,0.5,1.1c0.1,0.3,0.1,0.8,0.1,1.5v2.2c0,1.5,0,2.5,0.1,2.9c0.1,0.4,0.2,0.8,0.4,1.2h-1.7
			C560.4,661.3,560.3,660.9,560.2,660.5z M560.1,656.8c-0.6,0.2-1.5,0.4-2.7,0.6c-0.7,0.1-1.1,0.2-1.4,0.3c-0.3,0.1-0.5,0.3-0.6,0.5
			c-0.2,0.2-0.2,0.5-0.2,0.8c0,0.4,0.2,0.8,0.5,1.1c0.3,0.3,0.8,0.4,1.4,0.4c0.6,0,1.2-0.1,1.7-0.4c0.5-0.3,0.8-0.7,1.1-1.1
			c0.2-0.4,0.3-0.9,0.3-1.6V656.8z"/>
		<path class="st16" d="M567.8,660.2l0.2,1.4c-0.5,0.1-0.9,0.1-1.2,0.1c-0.6,0-1.1-0.1-1.4-0.3c-0.3-0.2-0.6-0.4-0.7-0.7
			c-0.1-0.3-0.2-0.9-0.2-1.9v-5.5h-1.2V652h1.2v-2.4l1.6-1v3.4h1.6v1.3h-1.6v5.6c0,0.5,0,0.8,0.1,0.9c0.1,0.1,0.2,0.2,0.3,0.3
			s0.3,0.1,0.6,0.1C567.3,660.3,567.5,660.2,567.8,660.2z"/>
		<path class="st16" d="M575.7,660.5c-0.6,0.5-1.2,0.9-1.7,1.1s-1.2,0.3-1.8,0.3c-1.1,0-1.9-0.3-2.4-0.8c-0.6-0.5-0.9-1.2-0.9-2
			c0-0.5,0.1-0.9,0.3-1.3c0.2-0.4,0.5-0.7,0.8-0.9s0.7-0.4,1.2-0.5c0.3-0.1,0.8-0.2,1.4-0.2c1.3-0.2,2.3-0.3,2.9-0.6
			c0-0.2,0-0.4,0-0.4c0-0.7-0.2-1.1-0.5-1.4c-0.4-0.4-1-0.6-1.9-0.6c-0.8,0-1.3,0.1-1.7,0.4s-0.6,0.7-0.8,1.4l-1.6-0.2
			c0.1-0.7,0.4-1.2,0.7-1.7c0.3-0.4,0.8-0.7,1.4-1c0.6-0.2,1.4-0.3,2.2-0.3c0.8,0,1.5,0.1,2,0.3c0.5,0.2,0.9,0.4,1.1,0.7
			c0.2,0.3,0.4,0.7,0.5,1.1c0.1,0.3,0.1,0.8,0.1,1.5v2.2c0,1.5,0,2.5,0.1,2.9c0.1,0.4,0.2,0.8,0.4,1.2H576
			C575.8,661.3,575.7,660.9,575.7,660.5z M575.6,656.8c-0.6,0.2-1.5,0.4-2.7,0.6c-0.7,0.1-1.1,0.2-1.4,0.3c-0.3,0.1-0.5,0.3-0.6,0.5
			c-0.2,0.2-0.2,0.5-0.2,0.8c0,0.4,0.2,0.8,0.5,1.1c0.3,0.3,0.8,0.4,1.4,0.4c0.6,0,1.2-0.1,1.7-0.4c0.5-0.3,0.8-0.7,1.1-1.1
			c0.2-0.4,0.3-0.9,0.3-1.6V656.8z"/>
		<path class="st16" d="M585.1,661.7v-13.3h5c0.9,0,1.6,0,2,0.1c0.7,0.1,1.2,0.3,1.6,0.6s0.8,0.7,1.1,1.3c0.3,0.5,0.4,1.2,0.4,1.8
			c0,1.1-0.4,2.1-1.1,2.9c-0.7,0.8-2,1.2-3.9,1.2h-3.4v5.4H585.1z M586.8,654.7h3.4c1.1,0,1.9-0.2,2.4-0.6c0.5-0.4,0.7-1,0.7-1.8
			c0-0.6-0.1-1-0.4-1.4c-0.3-0.4-0.7-0.7-1.1-0.8c-0.3-0.1-0.8-0.1-1.6-0.1h-3.4V654.7z"/>
		<path class="st16" d="M597.2,661.7v-13.3h1.6v13.3H597.2z"/>
		<path class="st16" d="M607.6,660.5c-0.6,0.5-1.2,0.9-1.7,1.1s-1.2,0.3-1.8,0.3c-1.1,0-1.9-0.3-2.4-0.8c-0.6-0.5-0.9-1.2-0.9-2
			c0-0.5,0.1-0.9,0.3-1.3c0.2-0.4,0.5-0.7,0.8-0.9s0.7-0.4,1.2-0.5c0.3-0.1,0.8-0.2,1.4-0.2c1.3-0.2,2.3-0.3,2.9-0.6
			c0-0.2,0-0.4,0-0.4c0-0.7-0.2-1.1-0.5-1.4c-0.4-0.4-1-0.6-1.9-0.6c-0.8,0-1.3,0.1-1.7,0.4s-0.6,0.7-0.8,1.4l-1.6-0.2
			c0.1-0.7,0.4-1.2,0.7-1.7c0.3-0.4,0.8-0.7,1.4-1c0.6-0.2,1.4-0.3,2.2-0.3c0.8,0,1.5,0.1,2,0.3c0.5,0.2,0.9,0.4,1.1,0.7
			c0.2,0.3,0.4,0.7,0.5,1.1c0.1,0.3,0.1,0.8,0.1,1.5v2.2c0,1.5,0,2.5,0.1,2.9c0.1,0.4,0.2,0.8,0.4,1.2H608
			C607.8,661.3,607.7,660.9,607.6,660.5z M607.5,656.8c-0.6,0.2-1.5,0.4-2.7,0.6c-0.7,0.1-1.1,0.2-1.4,0.3c-0.3,0.1-0.5,0.3-0.6,0.5
			c-0.2,0.2-0.2,0.5-0.2,0.8c0,0.4,0.2,0.8,0.5,1.1c0.3,0.3,0.8,0.4,1.4,0.4c0.6,0,1.2-0.1,1.7-0.4c0.5-0.3,0.8-0.7,1.1-1.1
			c0.2-0.4,0.3-0.9,0.3-1.6V656.8z"/>
		<path class="st16" d="M615.2,660.2l0.2,1.4c-0.5,0.1-0.9,0.1-1.2,0.1c-0.6,0-1.1-0.1-1.4-0.3c-0.3-0.2-0.6-0.4-0.7-0.7
			c-0.1-0.3-0.2-0.9-0.2-1.9v-5.5h-1.2V652h1.2v-2.4l1.6-1v3.4h1.6v1.3h-1.6v5.6c0,0.5,0,0.8,0.1,0.9c0.1,0.1,0.2,0.2,0.3,0.3
			s0.3,0.1,0.6,0.1C614.7,660.3,614.9,660.2,615.2,660.2z"/>
		<path class="st16" d="M617.2,661.7v-8.3h-1.4V652h1.4v-1c0-0.6,0.1-1.1,0.2-1.4c0.2-0.4,0.4-0.8,0.8-1c0.4-0.3,0.9-0.4,1.7-0.4
			c0.5,0,1,0.1,1.5,0.2l-0.2,1.4c-0.3-0.1-0.7-0.1-1-0.1c-0.5,0-0.8,0.1-1.1,0.3c-0.2,0.2-0.3,0.6-0.3,1.2v0.9h1.9v1.3h-1.9v8.3
			H617.2z"/>
		<path class="st16" d="M621.4,656.8c0-1.8,0.5-3.1,1.5-4c0.8-0.7,1.8-1.1,3-1.1c1.3,0,2.4,0.4,3.2,1.3s1.3,2.1,1.3,3.6
			c0,1.2-0.2,2.2-0.6,2.9s-0.9,1.3-1.6,1.7s-1.5,0.6-2.3,0.6c-1.3,0-2.4-0.4-3.3-1.3C621.8,659.7,621.4,658.5,621.4,656.8z
			 M623,656.8c0,1.2,0.3,2.2,0.8,2.8c0.5,0.6,1.2,0.9,2,0.9c0.8,0,1.5-0.3,2-0.9s0.8-1.6,0.8-2.8c0-1.2-0.3-2.1-0.8-2.7
			c-0.5-0.6-1.2-0.9-2-0.9c-0.8,0-1.5,0.3-2,0.9C623.3,654.7,623,655.6,623,656.8z"/>
		<path class="st16" d="M632.3,661.7V652h1.5v1.5c0.4-0.7,0.7-1.1,1-1.3c0.3-0.2,0.7-0.3,1-0.3c0.5,0,1.1,0.2,1.7,0.5l-0.6,1.5
			c-0.4-0.2-0.8-0.4-1.2-0.4c-0.4,0-0.7,0.1-1,0.3c-0.3,0.2-0.5,0.5-0.6,0.9c-0.2,0.6-0.3,1.2-0.3,1.9v5H632.3z"/>
		<path class="st16" d="M638.5,661.7V652h1.5v1.3c0.3-0.5,0.7-0.8,1.2-1.1c0.5-0.3,1.1-0.4,1.7-0.4c0.7,0,1.3,0.1,1.8,0.4
			s0.8,0.7,1,1.2c0.8-1.1,1.8-1.7,3-1.7c1,0,1.7,0.3,2.2,0.8c0.5,0.5,0.8,1.3,0.8,2.4v6.6h-1.6v-6.1c0-0.7-0.1-1.1-0.2-1.4
			c-0.1-0.3-0.3-0.5-0.6-0.7c-0.3-0.2-0.6-0.3-1-0.3c-0.7,0-1.2,0.2-1.7,0.7c-0.4,0.4-0.7,1.2-0.7,2.2v5.6h-1.6v-6.2
			c0-0.7-0.1-1.3-0.4-1.6s-0.7-0.5-1.3-0.5c-0.5,0-0.9,0.1-1.3,0.4s-0.7,0.6-0.8,1.1c-0.2,0.5-0.3,1.1-0.3,2v5H638.5z"/>
	</g>
	<g class="st13">
		<path class="st16" d="M969.9,681.3v-11H966V668h10.5v2.2h-3.9v11H969.9z"/>
		<path class="st16" d="M978.8,674.6l-2.3-0.4c0.3-0.9,0.7-1.6,1.3-2.1c0.6-0.4,1.6-0.7,2.8-0.7c1.1,0,2,0.1,2.5,0.4s0.9,0.6,1.2,1
			c0.2,0.4,0.3,1.2,0.3,2.3l0,3c0,0.8,0,1.5,0.1,1.9c0.1,0.4,0.2,0.8,0.5,1.3h-2.5c-0.1-0.2-0.1-0.4-0.2-0.8c0-0.2-0.1-0.3-0.1-0.3
			c-0.4,0.4-0.9,0.7-1.4,1s-1,0.3-1.6,0.3c-1,0-1.8-0.3-2.3-0.8c-0.6-0.5-0.9-1.2-0.9-2c0-0.5,0.1-1,0.4-1.5s0.6-0.8,1.1-1
			c0.5-0.2,1.1-0.4,2-0.6c1.2-0.2,2-0.4,2.5-0.6v-0.3c0-0.5-0.1-0.8-0.4-1c-0.2-0.2-0.7-0.3-1.4-0.3c-0.5,0-0.8,0.1-1.1,0.3
			C979.1,673.8,978.9,674.1,978.8,674.6z M982.2,676.7c-0.3,0.1-0.8,0.2-1.5,0.4c-0.7,0.2-1.2,0.3-1.4,0.4c-0.3,0.2-0.5,0.5-0.5,0.9
			c0,0.4,0.1,0.7,0.4,0.9c0.3,0.3,0.6,0.4,1,0.4c0.5,0,0.9-0.2,1.3-0.5c0.3-0.2,0.5-0.5,0.6-0.8c0.1-0.2,0.1-0.6,0.1-1.2V676.7z"/>
		<path class="st16" d="M989.6,681.3h-2.5v-9.6h2.4v1.4c0.4-0.6,0.8-1.1,1.1-1.3c0.3-0.2,0.7-0.3,1.1-0.3c0.6,0,1.1,0.2,1.7,0.5
			l-0.8,2.2c-0.4-0.3-0.8-0.4-1.2-0.4c-0.4,0-0.7,0.1-0.9,0.3c-0.2,0.2-0.4,0.6-0.6,1.1c-0.1,0.5-0.2,1.6-0.2,3.2V681.3z"/>
		<path class="st16" d="M994.2,681.9l2.9,0.4c0,0.3,0.2,0.6,0.3,0.7c0.2,0.2,0.6,0.3,1.1,0.3c0.7,0,1.2-0.1,1.5-0.3
			c0.2-0.1,0.4-0.3,0.5-0.6c0.1-0.2,0.1-0.6,0.1-1.2v-1.4c-0.8,1-1.7,1.6-2.9,1.6c-1.3,0-2.3-0.5-3.1-1.6c-0.6-0.9-0.9-1.9-0.9-3.2
			c0-1.6,0.4-2.8,1.2-3.7c0.8-0.9,1.7-1.3,2.9-1.3c1.2,0,2.2,0.5,2.9,1.6v-1.3h2.4v8.6c0,1.1-0.1,2-0.3,2.5c-0.2,0.6-0.5,1-0.8,1.3
			c-0.3,0.3-0.8,0.6-1.4,0.8c-0.6,0.2-1.3,0.3-2.1,0.3c-1.6,0-2.8-0.3-3.5-0.8c-0.7-0.6-1-1.3-1-2.1
			C994.2,682.1,994.2,682,994.2,681.9z M996.4,676.3c0,1,0.2,1.8,0.6,2.2c0.4,0.5,0.9,0.7,1.5,0.7c0.6,0,1.1-0.2,1.6-0.7
			c0.4-0.5,0.6-1.2,0.6-2.2c0-1-0.2-1.7-0.6-2.2c-0.4-0.5-0.9-0.7-1.6-0.7c-0.6,0-1.1,0.2-1.5,0.7
			C996.6,674.6,996.4,675.3,996.4,676.3z"/>
		<path class="st16" d="M1011.3,678.2l2.5,0.4c-0.3,0.9-0.8,1.6-1.5,2.1c-0.7,0.5-1.6,0.7-2.6,0.7c-1.7,0-2.9-0.5-3.7-1.6
			c-0.6-0.9-1-2-1-3.3c0-1.6,0.4-2.8,1.2-3.7s1.9-1.4,3.2-1.4c1.4,0,2.6,0.5,3.4,1.4c0.8,0.9,1.2,2.4,1.2,4.3h-6.4
			c0,0.8,0.2,1.3,0.6,1.8c0.4,0.4,0.9,0.6,1.5,0.6c0.4,0,0.7-0.1,1-0.3C1011,679,1011.2,678.7,1011.3,678.2z M1011.4,675.6
			c0-0.7-0.2-1.3-0.6-1.7c-0.4-0.4-0.8-0.6-1.3-0.6c-0.6,0-1,0.2-1.4,0.6s-0.5,1-0.5,1.6H1011.4z"/>
		<path class="st16" d="M1020.5,671.7v2h-1.7v3.9c0,0.8,0,1.2,0,1.4c0,0.1,0.1,0.2,0.2,0.3c0.1,0.1,0.3,0.1,0.4,0.1
			c0.2,0,0.6-0.1,1-0.2l0.2,2c-0.6,0.3-1.3,0.4-2,0.4c-0.5,0-0.9-0.1-1.2-0.2c-0.4-0.2-0.6-0.4-0.8-0.6c-0.2-0.2-0.3-0.6-0.4-1
			c-0.1-0.3-0.1-0.9-0.1-1.8v-4.2h-1.2v-2h1.2v-1.9l2.6-1.5v3.4H1020.5z"/>
	</g>
	<g class="st13">
		<path class="st16" d="M423.8,810.3h-6.1l0.3,0.1c0,0.1-0.2,0.2-0.4,0.2c-0.5,3.4-2,6.7-5.7,8.6c-0.2-0.2-0.7-0.7-1-0.9
			c3.7-1.8,4.9-4.6,5.4-8h-7.1V809h14.6V810.3z M421.1,805.2h-10.3V804h10.3V805.2z M421.4,802.5c0.8,0.8,1.6,2.1,2,2.9l-0.7,0.5
			c-0.4-0.9-1.3-2.2-2-2.9L421.4,802.5z M423.5,801.9c0.8,0.8,1.7,2.1,2.1,2.9l-0.8,0.5c-0.4-0.8-1.3-2.1-2-2.9L423.5,801.9z"/>
		<path class="st16" d="M427,810.1h15.5v1.3h-14.8c-0.1,0.2-0.4,0.3-0.6,0.4L427,810.1z"/>
		<path class="st16" d="M458.4,806.1c0,0.1-0.1,0.2-0.2,0.2c-0.7,2.3-1.6,4.4-2.7,6.1c0.8,0.5,1.7,1,2.4,1.5l-0.8,1.2
			c-0.7-0.5-1.6-1.1-2.4-1.6c-1.7,2.4-3.9,4.3-6.7,5.6c-0.2-0.3-0.7-0.8-1-1c2.7-1.3,4.9-3.1,6.6-5.3c-1.4-0.8-2.7-1.4-4.1-1.9
			l0.7-1c1.4,0.5,2.7,1.1,4.2,1.9c1-1.5,1.7-3.1,2.2-4.9h-6.3c-1.1,1.9-2.7,3.8-4.3,5.1c-0.2-0.2-0.7-0.6-1.1-0.8
			c2.4-1.9,4.7-5.2,5.8-8.4l1.8,0.4c-0.1,0.2-0.3,0.3-0.5,0.2c-0.3,0.6-0.7,1.5-1,2.2h6.2l0.3-0.1L458.4,806.1z"/>
		<path class="st16" d="M464.9,817c4.7-1.3,8.5-3.6,10.7-7.6c0.2,0.3,0.7,0.7,1,0.9c-2.5,4.3-6.6,6.7-12.2,8.2
			c0,0.1-0.1,0.3-0.3,0.4l-0.8-1.3l0.2-0.4v-13.7l1.9,0.1c0,0.2-0.2,0.4-0.6,0.4V817z"/>
		<path class="st16" d="M493.9,804.2c-0.1,0.1-0.2,0.1-0.4,0.1c-0.1,0-0.1,0-0.2,0c-1.4,1.4-3.5,3.1-5.3,4.4
			c0.1,0.1,0.4,0.2,0.4,0.2c0,0.1-0.2,0.2-0.4,0.2v10h-1.4v-9.5c-2,1.4-4.5,2.9-7.1,4.1c-0.2-0.3-0.5-0.8-0.8-1
			c5.1-2.3,10.6-6.3,13.6-9.6L493.9,804.2z"/>
		<path class="st16" d="M509.1,806.5c-0.1,0.1-0.2,0.2-0.3,0.3c-1.9,6-5,9.9-10.1,12.5c-0.2-0.3-0.6-0.7-0.9-1
			c4.9-2.4,7.9-6.1,9.4-11h-6.6c-1.1,1.7-2.5,3.3-4.2,4.6c-0.3-0.3-0.7-0.6-1.1-0.9c2.5-1.9,4.7-4.8,5.9-8l1.8,0.5
			c-0.1,0.2-0.3,0.2-0.5,0.2c-0.4,0.8-0.8,1.6-1.2,2.3h6.5l0.2-0.1L509.1,806.5z"/>
		<path class="st16" d="M510.8,814.6c1.4,1.1,3.2,2.9,4.2,4.1l-1.1,1c-0.9-1.2-2.8-3.1-4.1-4.2L510.8,814.6z"/>
		<path class="st16" d="M518.8,818.1l5.1-13.3h1.9l5.4,13.3h-2l-1.5-4h-5.5l-1.5,4H518.8z M522.6,812.7h4.5l-1.4-3.7
			c-0.4-1.1-0.7-2-0.9-2.8c-0.2,0.9-0.4,1.7-0.7,2.5L522.6,812.7z"/>
		<path class="st16" d="M532.9,818.1v-13.3h1.8v13.3H532.9z"/>
		<path class="st16" d="M537,819.2l16.7-16.7l0.5,0.5l-16.7,16.7L537,819.2z"/>
		<path class="st16" d="M556.2,818.1v-13.3h2.6l3.1,9.4c0.3,0.9,0.5,1.5,0.6,2c0.2-0.5,0.4-1.2,0.7-2.1l3.2-9.2h2.4v13.3h-1.7V807
			l-3.9,11.1h-1.6l-3.8-11.3v11.3H556.2z"/>
		<path class="st16" d="M571.6,818.1v-13.3h1.8v11.7h6.5v1.6H571.6z"/>
		<path class="st16" d="M602.4,808.6h-3.9v1.3c0,3.5-1.1,7.1-5.9,9.3c-0.2-0.3-0.6-0.7-1-0.9c4.7-2,5.6-5.3,5.6-8.4v-1.3h-6v4.6
			h-1.3v-4.6h-3.6v-1.3h3.6v-4l1.8,0.1c0,0.2-0.2,0.4-0.5,0.4v3.5h6V803l1.8,0.1c0,0.2-0.2,0.3-0.5,0.4v3.8h3.9V808.6z"/>
		<path class="st16" d="M604.8,810.1h15.5v1.3h-14.8c-0.1,0.2-0.4,0.3-0.6,0.4L604.8,810.1z"/>
		<path class="st16" d="M633.7,817.1c0.7,0,2.7-0.1,3.9-0.3c0,0.4,0,0.9,0.1,1.3c-1.2,0.1-3.1,0.2-3.8,0.2h-4.6
			c-2.8,0-4.2-1.2-4.2-3.9v-10.8l1.8,0.1c0,0.2-0.2,0.3-0.5,0.3v6c2.8-0.9,6.8-2.4,9.2-3.7l0.9,1.3c-0.1,0-0.1,0.1-0.2,0.1
			c-0.1,0-0.2,0-0.3-0.1c-2.2,1.1-6.5,2.7-9.7,3.7v3.1c0,1.9,0.9,2.6,2.8,2.6H633.7z M635.4,803.2c0.9,0.8,1.8,1.9,2.3,2.7l-0.7,0.5
			c-0.5-0.8-1.5-2-2.3-2.7L635.4,803.2z M637.7,802.1c0.8,0.8,1.8,1.9,2.3,2.7l-0.7,0.5c-0.5-0.8-1.5-2-2.3-2.7L637.7,802.1z"/>
		<path class="st16" d="M653.3,804.9c0,0.1-0.1,0.2-0.2,0.2c-1,2.4-2.2,4.4-3.7,6.4c2,1.6,5.1,4.4,6.8,6.3l-1.1,1
			c-1.6-1.9-4.6-4.7-6.5-6.2c-1.6,2-4.4,4.7-7.1,6.2c-0.2-0.3-0.6-0.7-1-1c5.1-2.8,9.2-8.1,10.9-12.1h-9.1v-1.3h9.8l0.2-0.1
			L653.3,804.9z"/>
	</g>
	<g class="st13">
		<path class="st14" d="M782.8,336.4v11h-1.2v-0.9h-10.3v-1.1h10.3v-8h-10.1v-1.1H782.8z"/>
		<path class="st14" d="M786.8,335.4c1.7,0.5,3.7,1.4,4.9,2.2l-0.6,1c-1.2-0.8-3.1-1.7-4.8-2.3L786.8,335.4z M786.7,346.7
			c5.8-1.8,9.6-5,11.6-9.5c0.3,0.3,0.7,0.5,1.1,0.7c-2,4.5-6,7.9-11.5,9.8c0,0.1-0.1,0.3-0.2,0.4L786.7,346.7z"/>
		<path class="st14" d="M814.5,340.5H809l0.3,0.1c0,0.1-0.1,0.2-0.3,0.2c-0.4,3-1.5,5.7-5,7.4c-0.2-0.2-0.6-0.6-0.9-0.8
			c3.4-1.6,4.3-3.9,4.7-6.9h-6.3v-1.1h13.1V340.5z M812.9,335.9h-10v-1.1h10V335.9z"/>
		<path class="st14" d="M817.4,335.4c1.7,0.5,3.7,1.4,4.9,2.2l-0.6,1c-1.2-0.8-3.1-1.7-4.8-2.3L817.4,335.4z M817.4,346.7
			c5.8-1.8,9.6-5,11.6-9.5c0.3,0.3,0.7,0.5,1.1,0.7c-2,4.5-6,7.9-11.5,9.8c0,0.1-0.1,0.3-0.2,0.4L817.4,346.7z"/>
		<path class="st14" d="M833.2,336.1c0.6,1.2,1.3,3.2,1.6,4.3l-1.1,0.4c-0.2-1.1-0.9-3.1-1.5-4.4L833.2,336.1z M845.4,336.3
			c0,0.1-0.2,0.2-0.4,0.2c-1.7,5.8-4.4,9.3-9.5,11.5c-0.2-0.2-0.5-0.7-0.8-0.9c5-2.1,7.5-5.4,9.2-11.3L845.4,336.3z M838.4,335.2
			c0.4,1.4,0.8,3.4,0.9,4.6l-1.2,0.2c-0.1-1.3-0.5-3.2-0.8-4.6L838.4,335.2z"/>
		<path class="st14" d="M858.7,347.4c-0.4-0.4-0.8-0.7-1.3-1.3c-1.3,1.1-2.5,1.5-3.9,1.5c-2.2,0-3.8-1.5-3.8-3.5
			c0-1.8,1.2-2.9,2.6-3.6v0c-0.8-0.9-1.1-1.9-1.1-2.6c0-1.5,1.1-3,3.1-3c1.6,0,2.7,1.1,2.7,2.6c0,1.3-0.7,2.3-2.9,3.4v0
			c1.3,1.5,2.7,3,3.5,3.7c0.5-0.7,0.9-1.7,1.3-3.7h1.2c-0.4,2.2-0.9,3.7-1.8,4.5c0.7,0.7,1.4,1.4,2.1,2.1H858.7z M856.7,345.4
			c-0.5-0.5-2.2-2.2-3.8-4.1c-0.7,0.4-1.9,1.2-1.9,2.7c0,1.6,1.2,2.6,2.8,2.6C855,346.6,856.1,346,856.7,345.4z M852.4,337.7
			c0,1,0.5,1.7,1,2.3c1.4-0.7,2.4-1.4,2.4-2.6c0-0.8-0.5-1.7-1.6-1.7C853,335.8,852.4,336.7,852.4,337.7z"/>
		<path class="st14" d="M772.2,356h11.1v1.1h-5v7.9h6.2v1.1H771V365h6.1v-7.9h-5V356z"/>
		<path class="st14" d="M798.4,356.8c-0.1,0.1-0.1,0.2-0.2,0.2c-1.7,5.3-4.4,8.7-8.9,11c-0.2-0.3-0.5-0.7-0.8-0.9
			c4.3-2.1,6.9-5.3,8.3-9.6h-5.8c-0.9,1.5-2.2,2.9-3.7,4c-0.2-0.2-0.6-0.5-0.9-0.7c2.2-1.7,4.1-4.2,5.2-7.1l1.5,0.4
			c-0.1,0.2-0.3,0.2-0.5,0.2c-0.3,0.7-0.7,1.4-1,2.1h5.7l0.2-0.1L798.4,356.8z"/>
		<path class="st14" d="M811,355.4c0,0.1-0.1,0.1-0.2,0.2c-0.9,2.1-1.9,3.9-3.3,5.6c1.8,1.4,4.4,3.8,6,5.5l-1,0.9
			c-1.4-1.7-4.1-4.1-5.7-5.5c-1.4,1.7-3.9,4.1-6.3,5.5c-0.2-0.2-0.6-0.7-0.8-0.9c4.5-2.5,8.1-7.1,9.5-10.6h-8v-1.1h8.6l0.2-0.1
			L811,355.4z"/>
		<path class="st14" d="M815,361.7c1.2-1.3,3.8-4.2,4.7-5.2c0.4-0.4,0.8-0.6,1.3-0.6c0.4,0,0.9,0.2,1.3,0.6c2.1,1.9,5.5,5.7,8,8.9
			l-1,0.9c-2.3-3.2-5.7-7.1-7.5-8.8c-0.3-0.3-0.5-0.4-0.7-0.4c-0.2,0-0.4,0.2-0.7,0.4c-0.8,0.8-3.1,3.6-4.2,4.7c0,0,0,0.1,0,0.1
			c0,0.1-0.1,0.3-0.2,0.3L815,361.7z M827.3,353.5c1,0,1.8,0.8,1.8,1.8s-0.8,1.8-1.8,1.8c-1,0-1.8-0.8-1.8-1.8
			C825.5,354.2,826.3,353.5,827.3,353.5z M828.6,355.3c0-0.7-0.6-1.3-1.3-1.3c-0.7,0-1.3,0.6-1.3,1.3c0,0.7,0.6,1.3,1.3,1.3
			C828,356.6,828.6,356,828.6,355.3z"/>
		<path class="st14" d="M833,362.7v-7.9l1.5,0.1c0,0.1-0.1,0.3-0.4,0.3v7.5H833z M842.1,354.1c0,0.2-0.1,0.2-0.4,0.3v5.2
			c0,3.4-1.2,6.6-5.9,8.4c-0.2-0.2-0.6-0.7-0.8-0.9c4.5-1.7,5.5-4.5,5.5-7.5V354L842.1,354.1z"/>
		<path class="st14" d="M846.5,356h11.1v1.1h-5v7.9h6.2v1.1h-13.5V365h6.1v-7.9h-5V356z"/>
		<path class="st14" d="M861.8,355c1.7,0.5,3.7,1.4,4.9,2.2l-0.6,1c-1.2-0.8-3.1-1.7-4.8-2.3L861.8,355z M861.7,366.3
			c5.8-1.8,9.6-5,11.6-9.5c0.3,0.3,0.7,0.5,1.1,0.7c-2,4.5-6,7.9-11.5,9.8c0,0.1-0.1,0.3-0.2,0.4L861.7,366.3z"/>
		<path class="st14" d="M886.8,355.4c0,0.1-0.1,0.1-0.2,0.2c-0.9,2.1-1.9,3.9-3.3,5.6c1.8,1.4,4.4,3.8,6,5.5l-1,0.9
			c-1.4-1.7-4.1-4.1-5.7-5.5c-1.4,1.7-3.9,4.1-6.3,5.5c-0.2-0.2-0.6-0.7-0.8-0.9c4.5-2.5,8.1-7.1,9.5-10.6h-8v-1.1h8.6l0.2-0.1
			L886.8,355.4z"/>
	</g>
</g>
</svg>
